<?xml version="1.0" encoding="utf-8"?>
<!-- Generator: Adobe Illustrator 22.1.0, SVG Export Plug-In . SVG Version: 6.00 Build 0)  -->
<svg version="1.1" id="Layer_1" xmlns="http://www.w3.org/2000/svg" xmlns:xlink="http://www.w3.org/1999/xlink" x="0px" y="0px"
	 viewBox="0 0 390.7 508.4" style="enable-background:new 0 0 390.7 508.4;" xml:space="preserve">
<style type="text/css">
	.st0{opacity:0.25;}
	.st1{fill:url(#SVGID_1_);}
	.st2{fill:url(#SVGID_2_);}
	.st3{fill:#111111;}
	.st4{fill:url(#SVGID_3_);}
	.st5{fill:url(#SVGID_4_);}
	.st6{fill:url(#SVGID_5_);}
	.st7{fill:#2116F4;}
	.st8{fill:#EBEBFF;}
	.st9{fill:#ACADB7;}
	.st10{fill:#0B0F2A;}
	.st11{fill:#15141A;}
	.st12{fill:#A03C35;}
	.st13{fill:#FFFFFF;}
	.st14{fill:url(#SVGID_6_);}
	.st15{fill:#F200FF;}
	.st16{fill:url(#SVGID_7_);}
	.st17{fill:#2D3445;}
	.st18{fill:#161C2B;}
	.st19{opacity:0.13;fill:#686868;}
	.st20{fill:#AE804F;}
	.st21{fill:#592721;}
	.st22{opacity:0.19;fill:#161616;}
	.st23{fill:#686868;}
	.st24{fill:url(#SVGID_8_);}
	.st25{fill:url(#SVGID_9_);}
	.st26{fill:url(#SVGID_10_);}
	.st27{fill:url(#SVGID_11_);}
	.st28{fill:url(#SVGID_12_);}
	.st29{fill:url(#SVGID_13_);}
	.st30{fill:url(#SVGID_14_);}
	.st31{fill:#D8EFFF;}
</style>
<g class="st0">
	
		<image style="overflow:visible;" width="464" height="581" xlink:href="F246835C866099EF.png"  transform="matrix(1 0 0 1 -36.7047 -28.3031)">
	</image>
</g>
<g>
	<linearGradient id="SVGID_1_" gradientUnits="userSpaceOnUse" x1="0" y1="254.2131" x2="390.6643" y2="254.2131">
		<stop  offset="0" style="stop-color:#693EAB"/>
		<stop  offset="1" style="stop-color:#AACEFF"/>
	</linearGradient>
	<path class="st1" d="M389.3,332.4c-2.1,7.2-5,14-10.5,19.4c-2.7,2.7-4.4,6.1-4,10c0.6,7-3.1,11.8-8.3,15.7c-1.9,1.4-3.9,2.6-4.5,5
		c-1.5,6.7-5.9,11.7-10.3,16.4c-6.7,7.1-12.6,14.2-16.8,23.5c-0.6,1.3-1.2,2.5-1.9,3.8c-5.5,9.9-14.3,17.5-23.6,24.2
		c-2.7,2-5.5,3.9-7.9,6.2c-5.2,5-11.4,7.2-17.9,8.8c-2.7,0.7-5.4,1.3-8.2,2c-0.8,0.2-1.5,0.4-2.3,0.5c-8.9,2.2-17.8,4.5-23.8,12.4
		c-5.8,7.6-12.7,13.8-20.8,18.7c-4.2,2.6-8.5,4.4-13.5,4.6c-0.1,0-0.2,0-0.4,0c-1.3,0-2.5,0.2-3.7,0.5c-4.6,0.9-9,3.1-13.7,4
		c-6,1.2-10.2-1.7-10.8-7.6c-1.4-15.1-15-32-35.2-27.7c-3.2,0.7-6.3,0.5-8.8-0.7c-3.8-1.8-7.7-3.4-11.7-4.9c-1.4-0.5-2.8-1-4.2-1.5
		c-7.8-2.7-15.9-4.8-24-6.6c-0.1,0-0.2,0-0.3-0.1c-4-0.9-8-1.7-12-2.5c-0.5-0.1-1.1-0.2-1.6-0.3c-1.2-0.2-2.4-0.5-3.5-0.7
		c-1.2-0.2-2.4-0.6-3.6-1c-0.8-0.3-1.5-0.5-2.3-0.8c-0.9-0.4-1.8-0.7-2.7-1.1c-3.6-1.6-7.1-2.8-11.2-1.5c-1.8,0.5-3.6,0.2-5.3-0.2
		c-1.2-0.3-2.4-0.7-3.5-0.9c-2.5-0.4-2.3-2.4-1.8-4.1c0.6-2,1.5-4,2.2-6c0.8-1.9,0.5-3.5-1.3-4.6c-3.8-2.3-5.8-6.2-8.2-9.6
		c-2.7-4-6-7.4-10-10.1c-6.3-4.2-7.6-8.2-5.3-15.4c2.4-7.4,6.8-14,7.5-22c0.7-7.1-0.8-13-6.8-17.1c-5.7-3.9-8.1-9-10-15.8
		c-2.7-9.4-2.7-17.8-0.9-27.3c1.5-7.9,1.8-16,4.3-23.9c1.5-4.8-0.4-9.8-1.3-14.7c-0.5-2.8-1.2-6-0.2-8.4c4.3-10,0.2-18.7-3.4-27.5
		c-0.9-2.3-1.4-4.8-3.5-6.4c-4.3-3.2-4.7-6.9-1.9-11.5c4.5-7.4,1.6-14.4-2-21c-1.4-2.5-2.6-4.6-0.8-7.3c2.2-3.1,1.9-6.3,0.6-9.6
		c-1.8-4.3-2.5-8.7-1.2-13.5c0.7-2.6,0.4-5.7-0.2-8.4c-0.9-4.3-1.1-8.6,0.7-12.5c2.2-4.7,1.4-8.9-1.1-13c-2.3-3.9-3.5-7.6-0.2-11.8
		c2.3-3,0.6-6.2-0.7-9.1c-5.4-12.3-7-25.5-9.8-38.4c-0.5-2.2-0.1-4.5,0.4-6.8c1.5-6.2,2.1-12.4-0.3-18.7c-3.5-8.9,0.6-15.6,7.3-20.9
		c6.8-5.4,13.6-10.6,15.6-19.9c0.8-3.6,4.1-4.5,6.5-4.4c4.9,1.2,7.2-1.5,9.5-3.5c2.7-2.2,5.4-3.9,8.8-4.5c4.9-0.8,9.7-1.6,14.6-2.5
		c5.4-1,8.7,3.3,11.8,6.9c1.5,1.8,2.9,3.7,5,4.6c11.4,4.9,18.1,14.8,25.3,24.1c2.1,2.6,4.5,4.3,8,4.5c8,0.6,9,1.5,9.7,9.3
		c0.2,2,0.9,3.8,2.2,5.3c1.7,1.9,2.8,3.8,0.6,6c-1.6,1.7-1.1,3.6,0.5,4.6c8.4,5.8,9.3,15.3,11.4,23.8c1.5,6.3,3.6,12.3,6.4,17.9
		c1.7,3.4,3.7,6.7,6.1,9.9c5,6.7,9,14,12,21.8c1.9,4.8,4.8,8.9,8.3,12.8c3.5,4,6.2,8.6,8.7,13.2v0c0.9,1.6,1.7,3.3,2.6,5v0
		c0.9,1.7,1.7,3.3,2.6,5c0.2,0.3,0.3,0.6,0.5,0.9c2.7,4.9,5.7,9.6,8.9,14.1c0.3,0.4,0.5,0.8,0.8,1.1c3.7,5.2,7.5,10.2,11.6,15.1
		c0.2,0.3,0.5,0.5,0.7,0.8c4.4,4.9,10.1,6.4,16.1,7.4c0,0,0,0,0.1,0c1.3,0.2,2.6,0.4,4,0.6c3.8,0.5,7.5,1.7,11,3.1h0
		c0.7,0.3,1.5,0.6,2.2,0.9c0,0,0,0,0,0c0.7,0.3,1.3,0.6,2,0.9c0.3,0.1,0.6,0.3,0.9,0.4l0,0c0,0,0,0,0,0c0.5,0.2,1.1,0.5,1.6,0.7
		c0.5,0.2,0.9,0.4,1.4,0.6c1.4,0.6,2.7,1.3,4.1,1.9c3.5,1.6,5.6,4.7,7.8,7.5l0,0c0.3,0.4,0.7,0.9,1,1.3c0,0,0,0,0,0
		c0.4,0.4,0.7,0.8,1.1,1.2c3,3,6.1,5.2,10.7,4.9c0.9-0.1,1.8,0,2.6,0.2c1.5,0.4,2.8,1.1,3.8,2.3c0.6,0.7,1.2,1.5,1.6,2.5
		c1.3,2.7,3.1,4.8,5.7,5.9c0.2,0.1,0.4,0.2,0.7,0.3c0.9,0.3,1.9,0.5,3.1,0.6c1.2,0.1,2.7,0.5,3.4,1.3c4.5,5.6,12,7.3,16.2,13.4
		c2.2,3.2,5,4,8.2,2.8c0.3-0.1,0.6-0.3,1-0.4c0.7-0.3,1.4-0.8,2.1-1.3c0.9-0.7,1.8-1.2,2.6-1.8c0.9-0.6,1.7-1,2.5-1.4
		c6-2.8,9.9-0.5,14.4,7.2c1.6,2.7,3,5.6,5.9,7.4c0.1,0.1,0.2,0.1,0.3,0.2c0,0,0,0,0,0c1,0.7,1.6,1.9,2,3.2c0,0.1,0.1,0.2,0.1,0.3v0
		c3.1,11,10.3,15.9,21.3,14.8c2-0.2,3.8,0.2,5.3,1.7c4,3.8,8,7.7,9.4,13.2c0.4,1.5,1,2.7,2.2,3.6
		C391.9,319.5,391.3,325.8,389.3,332.4z"/>
</g>
<g>
	
		<linearGradient id="SVGID_2_" gradientUnits="userSpaceOnUse" x1="253.0223" y1="150.5302" x2="282.4132" y2="150.5302" gradientTransform="matrix(0.9442 0.3293 -0.3293 0.9442 112.6102 96.303)">
		<stop  offset="0" style="stop-color:#DD5910"/>
		<stop  offset="1" style="stop-color:#FF9E15"/>
	</linearGradient>
	<path class="st2" d="M294.5,395.8l-5.1-1.8c-6.2-2.2-9.6-9.1-7.4-15.3l39.8-114c2.2-6.2,9.1-9.6,15.3-7.4l5.1,1.8
		c6.2,2.2,9.6,9.1,7.4,15.3l-39.8,114C307.6,394.7,300.8,398,294.5,395.8z"/>
	<circle class="st3" cx="263.6" cy="133.5" r="58.1"/>
	<linearGradient id="SVGID_3_" gradientUnits="userSpaceOnUse" x1="242.3911" y1="230.0739" x2="289.902" y2="230.0739">
		<stop  offset="0" style="stop-color:#DD5910"/>
		<stop  offset="1" style="stop-color:#FF9E15"/>
	</linearGradient>
	<path class="st4" d="M289.9,191.3V227c0,3.4-1.8,6.5-4.4,8.2v33.6c0,5.4-4.4,9.8-9.8,9.8h-16.9c-5.4,0-9.8-4.4-9.8-9.8v-32.6
		c-3.8-1.3-6.5-5-6.5-9.3v-35.6c0-5.4,4.4-9.8,9.8-9.8h27.8C285.5,181.5,289.9,185.9,289.9,191.3z"/>
	<linearGradient id="SVGID_4_" gradientUnits="userSpaceOnUse" x1="246.2917" y1="225.1102" x2="288.7741" y2="225.1102">
		<stop  offset="0" style="stop-color:#DD5910"/>
		<stop  offset="1" style="stop-color:#FF9E15"/>
	</linearGradient>
	<path class="st5" d="M288.8,186.4V222c0,3.4-1.6,6.5-4,8.2v33.6c0,5.4-3.9,9.8-8.8,9.8h-15.1c-4.9,0-8.8-4.4-8.8-9.8v-32.6
		c-3.4-1.3-5.8-5-5.8-9.3v-35.6c0-5.4,3.9-9.8,8.8-9.8H280C284.8,176.5,288.8,180.9,288.8,186.4z"/>
	<linearGradient id="SVGID_5_" gradientUnits="userSpaceOnUse" x1="239.8172" y1="166.8615" x2="287.328" y2="166.8615">
		<stop  offset="0" style="stop-color:#DD5910"/>
		<stop  offset="1" style="stop-color:#FF9E15"/>
	</linearGradient>
	<path class="st6" d="M287.3,128.1v35.6c0,3.4-1.8,6.5-4.4,8.2v33.6c0,5.4-4.4,9.8-9.8,9.8h-16.9c-5.4,0-9.8-4.4-9.8-9.8V173
		c-3.8-1.3-6.5-5-6.5-9.3v-35.6c0-5.4,4.4-9.8,9.8-9.8h27.8C282.9,118.3,287.3,122.7,287.3,128.1z"/>
	<g>
		<path class="st7" d="M204.7,282.2c0.8,0.2,1.6,0.3,2.3,0.5C206.2,282.5,205.5,282.4,204.7,282.2z"/>
		<path class="st7" d="M244.5,193.7c-0.4-1.5-0.4-2.9-0.1-4.1C244.2,190.8,244.1,192.3,244.5,193.7z"/>
		<path class="st7" d="M244.5,193.7c0.2,0.6,0.4,1.1,0.7,1.7C244.9,194.8,244.7,194.3,244.5,193.7z"/>
		<path class="st7" d="M245.8,185.7c-0.2,0.3-0.4,0.8-0.7,1.3C245.4,186.5,245.6,186,245.8,185.7z"/>
		<path class="st7" d="M246.1,196.7c0.4,0.5,0.8,1.1,1.2,1.7C246.9,197.8,246.5,197.2,246.1,196.7c-0.3-0.3-0.5-0.7-0.7-1
			C245.6,196.1,245.9,196.4,246.1,196.7z"/>
		<path class="st7" d="M246.1,185.2c0,0-0.1,0.2-0.3,0.5C246,185.4,246.1,185.2,246.1,185.2l0.7-3L246.1,185.2z"/>
		<path class="st7" d="M256.7,216.8c-0.1-0.3-0.3-0.8-0.6-1.4C256.4,216.1,256.6,216.6,256.7,216.8z"/>
		<path class="st7" d="M256.7,216.9c0.1,0.2,0.1,0.3,0.1,0.3l6.7,16.3l-6.8-16.3C256.8,217.1,256.8,217,256.7,216.9z"/>
		<path class="st7" d="M289.3,182.8c-0.9-1-1.6-1.9-2.2-2.7C287.7,181,288.4,181.9,289.3,182.8z"/>
		<path class="st7" d="M302.8,191.6c-0.7-0.3-1.4-0.6-2-0.9C301.5,191,302.1,191.3,302.8,191.6z"/>
		<path class="st7" d="M315.3,307.3c-1,0.1-1.9,0.2-1.9,0.2C314.1,307.3,314.7,307.3,315.3,307.3z"/>
		<path class="st7" d="M333.1,420.7c0,1.7,0,3.5-0.1,5.5c-5.5,9.9-14.3,17.5-23.6,24.2c-2.7,2-5.5,3.9-7.9,6.2
			c-7.3,7.1-16.8,8.5-26,10.8c-0.8,0.2-1.5,0.4-2.3,0.5h-69c0,0-0.1-0.2-0.2-0.6c-1.3-5.1-9.7-41-2.9-79.7
			c5.7-32.8,13.9-57.1,17.2-66.1c0-0.1,0.1-0.3,0.2-0.4c0,0,0,0,0,0c0.8-2.2,1.3-3.4,1.3-3.4l-1.7-7.8l-3-3.7l0-0.9h5l4.3,3.5
			l1.4,1.1l0,0l1.7,1.4c0,0,17.3,4.2,21.5,4.1c0.2,0,0.6,0,1,0c2.5-0.1,8-0.2,13.7-0.4c0.9,0,1.7-0.1,2.6-0.1c0.1,0,0.2,0,0.3,0
			c0.9,0,1.8,0,2.6-0.1c7-0.2,13.1-0.4,13.1-0.4l1-0.2l18.8-4.4c0,0,1.5,1.2,3.7,1.2c1.5,0,3.3-0.4,5.2-2c0.9-0.7,1.7-1.1,2.5-1.4
			c0,0,0.6,6.4,2,8.9c1.5,2.5,1.5,2.5,1.5,2.5l0.3,3.5h-1.9c0,0,0,0.2,0.1,0.5c0.1,0.5,0.2,1.3,0.4,2.2c0.5,2.8,1.2,6.8,1.6,7.6
			c0.2,0.5,2.1,9.1,4.5,20.9C326.6,376.2,333.1,410.3,333.1,420.7z"/>
		<path class="st8" d="M365.5,268.7c0,0-1,0.8-2.5,2c-0.2,0.1-0.4,0.3-0.5,0.4c-0.1,0.1-0.2,0.1-0.3,0.2c-0.2,0.1-0.4,0.3-0.6,0.5
			c-0.1,0.1-0.2,0.2-0.3,0.2c-0.5,0.4-1.1,0.9-1.7,1.3c-0.9,0.7-2,1.5-3,2.2c-0.8,0.6-1.5,1.1-2.3,1.6c-1.3,0.9-2.7,1.8-3.9,2.5
			c-0.4,0.2-0.8,0.4-1.1,0.6c-0.2,0.1-0.4,0.2-0.6,0.3c-0.4,0.2-0.8,0.4-1.1,0.5c-0.2,0.1-0.3,0.1-0.5,0.2l-0.7-4c0,0,0,0,0,0
			c0,0,0,0-0.1,0h0c-0.3,0.1-1.5,0.5-3.2,1c-0.1,0-0.1,0-0.2,0c-0.1,0-0.3,0.1-0.5,0.1c-0.1,0-0.2,0.1-0.2,0.1
			c-0.4,0.1-0.7,0.2-1.1,0.4c-0.4,0.1-0.8,0.3-1.2,0.4c0,0-0.1,0-0.1,0c-0.3,0.1-0.7,0.2-1.1,0.3c-0.2,0.1-0.4,0.1-0.6,0.2
			c-0.4,0.1-0.8,0.2-1.1,0.4c-0.2,0.1-0.5,0.2-0.7,0.2c-0.3,0.1-0.7,0.2-1,0.3c-0.2,0.1-0.4,0.1-0.6,0.2c-1,0.3-2,0.7-3,1
			c-0.3,0.1-0.7,0.2-1,0.3c-0.9,0.3-1.8,0.6-2.7,0.9c-0.2,0.1-0.4,0.1-0.6,0.2c-4.3,1.5-7.8,2.9-8.6,3.5c0,0-0.1,0.1-0.1,0.1
			c-0.1,0.1-0.1,0.1-0.1,0.2c0,0,0,0.1,0,0.2c0,0,0,0.1,0,0.1c0,0,0,0.1,0,0.1c0.3,1.5,1.3,6.8,1.4,13.6v0c0,0.7-0.1,1.3-0.2,1.9
			c0,0.2-0.1,0.4-0.1,0.6c0,0,0,0,0,0c0,0.1,0,0.2-0.1,0.4c-0.1,0.4-0.2,0.8-0.3,1.2c0,0.1,0,0.1-0.1,0.2c0,0.1-0.1,0.2-0.2,0.3
			c0,0-0.1,0.1-0.1,0.1c0,0-0.1,0.1-0.1,0.1c-0.1,0.1-0.1,0.1-0.2,0.1c-0.6,0.2-2.1,0.5-3.4,0.7c-0.1,0-0.1,0-0.2,0
			c-0.6,0-1.2,0-1.9,0.2c-0.8,0.2-1.6,0.7-2.5,1.4c-4.9,4-8.9,0.8-8.9,0.8l-19.9,4.7c0,0-29,1-33.3,1.1c-4.2,0.1-21.5-4.1-21.5-4.1
			l-7.3-6.1h-4.9l0.3-21c0,0-0.1,0-0.2,0c0,0-0.1,0-0.1,0c0,0,0,0,0,0c-0.1,0-0.3,0-0.5-0.1c-0.1,0-0.1,0-0.2,0
			c-0.1,0-0.3-0.1-0.5-0.1c-0.1,0-0.1,0-0.2,0c0,0-0.1,0-0.1,0c-0.3-0.1-0.6-0.1-1-0.2c-0.2,0-0.3-0.1-0.5-0.1
			c-0.2,0-0.4-0.1-0.6-0.1c-0.2,0-0.4-0.1-0.6-0.1c-0.2,0-0.4-0.1-0.7-0.1c0,0,0,0,0,0c-0.2,0-0.5-0.1-0.7-0.1
			c-0.8-0.1-1.6-0.3-2.4-0.5c-0.8-0.1-1.5-0.3-2.3-0.5c-2-0.4-4-0.9-6-1.4c-0.4-0.1-0.9-0.2-1.3-0.3c-1.8-0.5-3.4-0.9-4.8-1.4
			c-0.4-0.1-0.8-0.2-1.1-0.4c-0.2-0.1-0.5-0.2-0.7-0.3c-0.3-0.1-0.6-0.2-0.9-0.4c-0.5-0.2-0.9-0.4-1.1-0.6v4.1c0,0-9.3-8-10.2-10.4
			c-0.1-0.4,0-1.2,0.4-2.4c0.1-0.2,0.2-0.4,0.2-0.7c0.1-0.4,0.3-0.8,0.5-1.2c0.2-0.5,0.5-1.1,0.7-1.7c0.1-0.3,0.3-0.6,0.4-0.9
			c0.2-0.5,0.4-1,0.7-1.5c0.2-0.5,0.5-1,0.7-1.6c0.3-0.7,0.7-1.4,1-2.1c0.1-0.2,0.2-0.4,0.3-0.6c0.5-1.1,1.1-2.2,1.6-3.3
			c0.2-0.4,0.4-0.7,0.5-1.1c0.2-0.4,0.3-0.7,0.5-1.1c0.2-0.4,0.4-0.8,0.6-1.2c0.1-0.1,0.1-0.3,0.2-0.4h0c0.1-0.3,0.2-0.5,0.3-0.8
			c0.1-0.2,0.2-0.5,0.3-0.7c0.1-0.3,0.3-0.6,0.4-1c0,0,0,0,0,0c0.1-0.3,0.3-0.6,0.4-0.9c0,0,0,0,0,0c0.2-0.5,0.4-0.9,0.6-1.4
			c0.2-0.4,0.3-0.8,0.5-1.2c0.1-0.3,0.2-0.5,0.2-0.7c0-0.1,0-0.1,0-0.1c0.2-0.5,0.3-0.9,0.3-1.2c0.1-0.5,0.1-1.1,0.2-1.6
			c0.1-0.4,0.1-0.7,0.2-1.1c0.1-0.5,0.2-0.9,0.2-1.4c0-0.1,0-0.2,0.1-0.3c0.3-1.5,0.6-2.8,0.8-3.7c0.1-0.2,0.1-0.5,0.1-0.6
			c0-0.1,0.1-0.3,0.1-0.4c0-0.1,0-0.2,0.1-0.2c0,0,0,0,0-0.1h0c0-0.2,0.1-0.2,0.1-0.2s0-0.2,0-0.6c0-0.3,0.1-0.9,0.1-1.5
			c0-0.4,0.1-0.8,0.1-1.3c0-0.1,0-0.2,0-0.3c0-0.3,0.1-0.6,0.1-0.9c0-0.3,0.1-0.6,0.1-0.9c0.2-1.5,0.4-3.1,0.6-4.6
			c0.1-0.4,0.1-0.8,0.2-1.2c0.1-0.4,0.2-0.8,0.2-1.2c0.1-0.4,0.2-0.7,0.3-1c0.1-0.3,0.2-0.6,0.3-0.9c0.1-0.4,0.3-0.7,0.4-1
			c0.1-0.2,0.2-0.3,0.3-0.5c0.2-0.3,0.5-0.7,0.8-1.1c0.4-0.5,0.8-1,1.2-1.6c0.2-0.3,0.4-0.5,0.7-0.8c0,0,0,0,0,0
			c0.2-0.2,0.4-0.5,0.7-0.7c0.2-0.3,0.5-0.5,0.7-0.7c0.1-0.1,0.2-0.2,0.2-0.2c0.8-0.8,1.6-1.4,2-1.6c0.9-0.3,2.6-2,6.1-4.3
			c0.3-0.2,0.5-0.4,0.8-0.6c0.7-0.4,1.4-0.8,2.1-1.3c0.4-0.2,0.8-0.4,1.2-0.7c1.2-0.6,2.5-1.3,4-2c9.3-4.2,20-9.8,20-9.8l11.7-10.6
			l-0.7,3c0,0-0.1,0.2-0.3,0.5c0,0.1-0.1,0.2-0.1,0.3c0,0.1-0.1,0.1-0.1,0.2c0,0,0,0.1,0,0.1h0c0,0.1-0.1,0.1-0.1,0.2
			c0,0.1-0.1,0.1-0.1,0.2c-0.1,0.1-0.1,0.3-0.2,0.4c-0.3,0.7-0.6,1.6-0.8,2.5c0,0.1-0.1,0.3-0.1,0.4c0,0.2-0.1,0.5-0.1,0.7
			c0,0.2,0,0.5,0,0.7c0,0.1,0,0.2,0,0.3c0,0.1,0,0.3,0,0.4c0,0.1,0,0.2,0,0.3c0,0.2,0.1,0.4,0.1,0.7c0,0.2,0.1,0.4,0.1,0.6v0
			c0.1,0.3,0.2,0.6,0.3,0.8c0.1,0.3,0.2,0.6,0.4,0.8c0.1,0.1,0.1,0.2,0.2,0.3c0.2,0.3,0.4,0.7,0.7,1c0.1,0.1,0.2,0.2,0.3,0.4
			c0.1,0.1,0.2,0.3,0.3,0.4c0.1,0.1,0.2,0.3,0.3,0.4c0.1,0.1,0.2,0.3,0.3,0.5c0.1,0.2,0.3,0.4,0.4,0.7c0.6,0.9,1.2,1.9,1.8,3
			c0.3,0.5,0.6,1.1,0.9,1.6c1.4,2.7,2.8,5.5,3.9,7.9c0.1,0.2,0.2,0.5,0.3,0.7v0c0.1,0.2,0.2,0.5,0.3,0.7v0c0.1,0.3,0.3,0.7,0.4,1
			c0.1,0.2,0.2,0.4,0.3,0.6c0.1,0.2,0.2,0.4,0.2,0.5c0,0.1,0.1,0.2,0.1,0.3c0.3,0.6,0.5,1.1,0.6,1.4c0,0,0,0,0,0
			c0.1,0.2,0.1,0.3,0.1,0.3l6.8,16.3l20-37.6c0,0,0,0,0,0c0,0,0,0,0,0c0,0,0,0,0-0.1c0-0.1,0.1-0.2,0.1-0.3c0,0,0-0.1,0.1-0.1
			c0-0.1,0.1-0.2,0.1-0.3c0.1-0.3,0.3-0.8,0.4-1.3c0.1-0.2,0.1-0.4,0.2-0.6s0.1-0.5,0.2-0.7c0-0.1,0.1-0.2,0.1-0.4
			c0.1-0.3,0.1-0.5,0.2-0.8c0.5-2,0.8-4.3,0.7-6.5c-0.1-0.6-0.2-1.2-0.3-1.8c-0.1-0.6-0.4-1.1-0.6-1.6c-0.1-0.2-0.2-0.3-0.3-0.5
			c-0.1-0.2-0.2-0.3-0.2-0.5c-0.3-0.6-0.5-1-0.7-1.4c0-0.1-0.1-0.2-0.1-0.3c-0.2-0.4-0.3-0.7-0.4-0.9c0-0.1-0.1-0.2-0.1-0.3
			c0-0.1,0-0.1,0-0.1c0.1-0.1,0.3,0.2,0.3,0.2h2c0,0,0.6,1.1,1.8,2.7c0.6,0.8,1.3,1.7,2.2,2.7c2,2.2,4.8,4.7,8.3,6.4h0
			c0.2,0.1,0.5,0.2,0.7,0.3c0,0,0.1,0,0.1,0.1c0.2,0.1,0.5,0.2,0.8,0.4c0,0,0.1,0,0.1,0c0.3,0.1,0.5,0.2,0.8,0.4
			c0.2,0.1,0.5,0.2,0.7,0.3c0.6,0.3,1.3,0.6,2,0.9c0.6,0.3,1.2,0.5,1.8,0.8c0.4,0.2,0.8,0.3,1.2,0.5c0,0,0.1,0,0.1,0
			c0.7,0.3,1.3,0.6,2,0.9c1,0.4,2,0.9,3,1.3c0.7,0.3,1.3,0.6,2,0.9c0.2,0.1,0.5,0.2,0.7,0.3c0.4,0.2,0.8,0.3,1.1,0.5
			c0.4,0.2,0.7,0.3,1.1,0.5c0.4,0.2,0.9,0.4,1.3,0.6c0.1,0,0.1,0.1,0.2,0.1c0.5,0.2,0.9,0.4,1.4,0.6c3.1,1.4,6.1,2.9,8.8,4.2
			c0.2,0.1,0.4,0.2,0.7,0.3c0.6,0.3,1.3,0.7,1.9,1c0.2,0.1,0.5,0.3,0.7,0.4c0.2,0.1,0.4,0.2,0.5,0.3c0.3,0.2,0.7,0.4,1,0.6
			c0.3,0.2,0.7,0.4,1,0.6c0.5,0.3,0.9,0.6,1.3,0.9c0.4,0.3,0.8,0.6,1.1,0.9v0l9.5,18l0,0.1c0.3,0.6,0.6,1.2,0.9,1.8
			c0.3,0.6,0.6,1.3,0.9,1.9c0.2,0.5,0.5,0.9,0.7,1.4c0.2,0.4,0.4,0.8,0.6,1.2c0.1,0.2,0.2,0.5,0.3,0.7c0.2,0.4,0.4,0.9,0.6,1.3
			c0.1,0.1,0.1,0.2,0.2,0.3c0.2,0.3,0.3,0.7,0.5,1c0.2,0.5,0.4,0.9,0.7,1.4c1,2,1.9,4.1,2.9,6.1c0.2,0.4,0.4,0.9,0.6,1.3
			c2.3,4.8,4.5,9.4,6.3,13.3c0.1,0.2,0.2,0.4,0.3,0.6c0.7,1.4,1.3,2.7,1.9,3.9c0.1,0.3,0.2,0.5,0.4,0.8c0.4,0.8,0.7,1.6,1.1,2.2
			c0.1,0.3,0.3,0.5,0.4,0.8c0.3,0.7,0.6,1.2,0.8,1.7c0.1,0.1,0.1,0.3,0.2,0.4C365.5,268.5,365.5,268.7,365.5,268.7z"/>
		<path class="st8" d="M179.6,267c0.2-0.5,0.5-1.1,0.7-1.7C180.1,265.9,179.8,266.5,179.6,267z"/>
		<path class="st8" d="M186,253.2c0.5-1,1-2.1,1.4-3C187,251.1,186.5,252.1,186,253.2z"/>
		<path class="st8" d="M188.9,246.9c0.2-0.4,0.3-0.8,0.5-1.2C189.2,246,189,246.4,188.9,246.9z"/>
		<path class="st8" d="M189.9,243.6c0.1-0.5,0.1-1.1,0.2-1.6C190,242.5,190,243,189.9,243.6c0,0.3-0.1,0.7-0.3,1.2
			C189.8,244.3,189.9,243.9,189.9,243.6z"/>
		<path class="st8" d="M191.7,233.8c0,0,0-0.2,0-0.6C191.7,233.6,191.7,233.8,191.7,233.8c0,0-0.1,0.3-0.2,0.9
			C191.6,234.2,191.7,233.8,191.7,233.8z"/>
		<path class="st8" d="M193.5,220.4c0.1-0.3,0.2-0.6,0.3-0.9C193.7,219.8,193.6,220.1,193.5,220.4z"/>
		<path class="st8" d="M194.6,218.1c0.2-0.3,0.5-0.7,0.8-1.1C195.1,217.4,194.8,217.7,194.6,218.1z"/>
		<path class="st8" d="M196.6,215.4c0.4-0.5,0.9-1,1.3-1.5C197.5,214.4,197,214.9,196.6,215.4z"/>
		<path class="st8" d="M215.2,284.3c0.1,0,0.2,0,0.2,0l-0.3,21h0l0.3-21C215.4,284.3,215.3,284.3,215.2,284.3z"/>
		<path class="st8" d="M283.6,195.8C283.6,195.8,283.6,195.8,283.6,195.8l-20,37.6L283.6,195.8z"/>
		<path class="st8" d="M283.6,195.8c0-0.1,0.2-0.4,0.4-0.9C283.8,195.5,283.6,195.8,283.6,195.8z"/>
		<path class="st8" d="M284.9,181.2c0.3,0.5,0.5,1,0.6,1.6C285.3,182.3,285.1,181.7,284.9,181.2c-0.1-0.2-0.2-0.3-0.3-0.5
			C284.7,180.9,284.8,181.1,284.9,181.2z"/>
		<path class="st8" d="M343.2,278.5c1.7-0.6,2.9-0.9,3.2-1c0,0,0,0-0.1,0s-0.1,0-0.1,0c0,0-0.1,0-0.1,0
			C345.5,277.7,344.5,278,343.2,278.5z"/>
		<path class="st8" d="M347.2,281.4L347.2,281.4l-0.7-4c0,0,0,0,0,0L347.2,281.4z"/>
		<g>
			<path class="st9" d="M316.8,286.8c0,0-3.5-9.4-1.3-16.4s3.7-14.9,3.7-14.9s-2.4,10.2-2.2,17.1C317.2,279.6,315,272.9,316.8,286.8
				z"/>
			<path class="st9" d="M307.5,308.4c0,0-1.3-4-8.2-3.8s-66.6,0-66.6,0s2.8,3.8,6.1,3.8s53.6-1.9,56.2,0H307.5z"/>
			<path class="st9" d="M223,307.2l-6.7-9.2l-0.7-1c0,0,13.9-14.1,14.4-17.1c0.4-3,2.7-9.8-2.8-14.4c0,0,3.9,5.8,0.3,14.3
				c-3.6,8.4-11.9,15.8-11.9,15.8L223,307.2z"/>
			<path class="st9" d="M215.5,281.7v-5.9c0,0-6.6-26.4-6.6-28.9c0-2.5-0.5-28.6-2.1-31.4c-1.6-2.8-1.6-2.8-1.6-2.8s3.5,17,2.1,33
				l4,18.5C211.4,264.1,215,271.9,215.5,281.7z"/>
			<path class="st9" d="M205.2,262c0,0-8.1-24-8.8-28.2l7,28.2H205.2z"/>
			<polygon class="st9" points="208.8,262 207.7,259.2 205.2,252.6 211.4,264.1 			"/>
			<polygon class="st9" points="191.8,235.7 191.1,258.4 188.9,258.4 			"/>
			<path class="st9" d="M321.5,242.4l6-21.1h-3C324.5,221.3,321.3,238.1,321.5,242.4z"/>
			<path class="st9" d="M321.5,264.4l3-1.3l1.9-9.6C326.4,253.5,324.2,262.5,321.5,264.4z"/>
			<path class="st9" d="M327.5,221.3c0,0,8.4-1.5,8.6,3.3c0.2,4.8,5.1,16.4,5.1,16.4l4.2,10.5v3.9c0,0,4-12.2,2.9-17.2
				s-13.1-27.9-13.1-27.9s-2.4-4.2-3.8,1.8S327.5,221.3,327.5,221.3z"/>
			<path class="st9" d="M322.8,203.2c0,0-3.6,3.3-5.7,9.1c-2.1,5.7-2.1,5.7-2.1,5.7s0.5-11.5-0.9-14.8c-1.5-3.3-1.5-3.3-1.5-3.3
				s3.1,3.7,5.1,4.4S322.8,203.2,322.8,203.2z"/>
			<polygon class="st9" points="305.6,195.8 302.1,195.2 300.1,194.9 307.3,211.2 303.7,197.5 			"/>
		</g>
		<g>
			<path class="st10" d="M315,321.7c0,0-0.4,4.8-5.7,4.8c0,0,6.4-0.8,7-1.7L315,321.7z"/>
			<path class="st10" d="M297.3,334.6c0,0-32.2,6.1-74.2-5.5c0,0-3.5-0.9-4-2.6c0,0-3.1,3.9,13.8,7c16.9,3.1,51.8,5.1,60.2,3.4
				C293.2,336.9,296.5,336.3,297.3,334.6z"/>
			<path class="st10" d="M218.9,320.5c0,0-1.9,1.7,0.7,3.6s15.8,7.4,30,8.5c14.2,1.1,54.6-5.2,54.6-5.2s-45.7,5.1-55.8,3.2
				C238.4,328.7,222.8,326.2,218.9,320.5z"/>
			<path class="st10" d="M291,331.4c0,0,19.7-2.4,21.7-3.8l1.9-1v2.4C314.7,329,295.9,332.9,291,331.4z"/>
			<path class="st10" d="M232.6,354.9c0,0,7.4-2,12-0.9c4.6,1.2,4.6,1.2,4.6,1.2L232.6,354.9z"/>
			<path class="st10" d="M222.6,351.4H240c0,0-10-5.8-13.7-2.9C222.6,351.4,222.6,351.4,222.6,351.4z"/>
			<polygon class="st10" points="277.1,354.5 309.2,352.6 284.7,356.3 266.2,356.3 			"/>
			<path class="st10" d="M311.2,389.6c0,0-22.4,17.9-32.9,19.8c-10.5,1.9-21.4,3.8-21.4,3.8l-18,1.7l-7.5,6.8c0,0,13.6,4.1,20.3,1
				c6.7-3.1,6.6-4.8,12.3-5.6c5.7-0.9,16.7-3.8,19.6-5.6c2.9-1.9,9.1-5.5,9.1-5.5L311.2,389.6z"/>
			<path class="st10" d="M227.4,387.1c0,0,32.6,3.9,37.5,2.5s13.4-5.1,13.4-5.1l12.7,1.3l6.2,1.4c0,0-6.1,2-11,2.4s-7.5,4.3-7.5,4.3
				l-14,1.8l-18.1-1.8C246.8,393.9,231.8,388.7,227.4,387.1z"/>
		</g>
		<g>
			<path class="st11" d="M242.4,217.4c0.1,0.3,0.2,0.7,0.3,1.2c-0.1,0-0.1,0-0.2,0C242.4,218.2,242.4,217.7,242.4,217.4L242.4,217.4
				z"/>
			<path class="st11" d="M291.1,215c-0.2,0.3-0.4,0.7-0.8,1.2c0,0,0,0,0,0c-1.7,2.9-5.6,9.3-8.7,15.2c-0.4,0.9-0.9,1.7-1.3,2.5
				c0,0,0,0.1,0,0.1c-0.4,0.9-0.8,1.7-1.2,2.5c-0.9,2.1-1.6,4-1.8,5.2v0c-0.1,0.9-0.3,2-0.5,3.2c-0.1,0.3-0.1,0.7-0.2,1
				c0,0.1,0,0.2,0,0.3c-0.1,0.3-0.1,0.6-0.2,1l0,0.1c-0.2,0.7-0.3,1.5-0.5,2.2c-0.1,0.4-0.2,0.8-0.3,1.1c-0.9,4.1-1.8,8.5-2.3,11.6
				c-0.1,1-0.2,1.8-0.2,2.5v0c0,0.7,0.1,1.3,0.3,1.6c0.2,0.4,0.6,1.1,1,2c0.4,0.8,0.8,1.7,1.2,2.8c0.3,0.7,0.6,1.5,0.9,2.4
				c0,0,0,0,0,0c0.3,0.8,0.5,1.6,0.8,2.4c1.3,4,2.5,9.1,3.2,15.2c0.1,0.6,0.2,1.3,0.2,2c0.1,0.9,0.2,1.8,0.3,2.8l0,0.3v0
				c0.1,0.9,0.2,1.8,0.3,2.8c0.7,5.9,1.4,13.1,2.2,20c0.1,1,0.2,2,0.3,3v0c0.1,1,0.2,2,0.3,3c0.9,8.2,1.6,15.2,1.9,18.1
				c0.1,0.9,0.1,1.5,0.1,1.5l0.1,1.6l0.3,3l1.6,17.7l0.3,3l0,0.1l0.2,2.2l-8,11.3l-9.1,12.8l-0.5-0.4l-1.5-1.4l-0.1-0.1l-1.5-1.4
				l-10.3-9.8l-1.6-1.5l-1.6-1.5l-3.5-3.3l-0.3-12.6l-0.1-3.3l-0.1-3.3l-0.5-20.1l-0.1-3.1l0-0.3l-0.1-3.1l-0.5-20.9v0l-0.1-3.4
				v-0.1l-0.1-3.4v0l-0.3-11.7c0,0,3.7-8.2,6-16c0.5-1.6,0.9-3.2,1.2-4.8l0-0.3c0.3-1.4,0.5-2.7,0.5-3.9c0-1,0-2-0.3-2.7
				c-1.5-5.1-3.3-7.9-4.2-12c-0.2-0.9-0.3-1.9-0.4-3l0,0v0c0-0.3,0-0.6-0.1-1c0-0.6-0.1-1.2-0.2-1.9v0c-0.2-1.4-0.6-2.8-1.1-4.1
				c-0.3-0.7-0.5-1.4-0.9-2.1c0,0,0,0,0-0.1c-0.3-0.7-0.7-1.4-1-2c-0.2-0.3-0.3-0.6-0.5-0.8c-0.4-0.8-0.8-1.4-1.1-1.9
				c0,0,0-0.1-0.1-0.1c-0.3-0.5-0.5-0.8-0.5-0.8s-0.2-0.5-0.5-1.2c-0.7-1.7-1.9-4.8-2.5-7.6c0-0.2-0.1-0.3-0.1-0.5
				c-0.1-0.8-0.3-1.6-0.4-2.4l0-0.1c0-0.2-0.1-0.5-0.1-0.7c0-0.2-0.1-0.5-0.1-0.7v0l0.4-1l0-0.1c0,0,0,0.1,0,0.1
				c0.4,0.9,0.9,1.7,1.6,2.3c0.2,0.1,0.4,0.3,0.7,0.5c0.2,0.1,0.4,0.3,0.6,0.4c1.7,1.1,4.4,2.8,6.5,4.1c0.8,0.5,1.4,0.9,1.9,1.2
				c0,0,0.1,0,0.1,0.1c0.6,0.3,0.9,0.5,0.9,0.5l0.6,1.1l0.6,1.2v0l0,0.1l0,1.1v0.1l0,2.6l0,0.9l0,2.2v0.1l0,2.2l0,0.6l8.3,0.1l0.8,0
				h0.1l2.6,0h0.2l0.6,0c0,0,1,0.2,2.1-0.6c0.8-0.6,1.8-1.6,2.5-3.7c0.2-0.6,0.4-1.2,0.5-2c0-0.1,0-0.2,0.1-0.4c0,0,0,0,0-0.1
				c0.2-0.8,0.3-1.6,0.4-2.3c0.5-3,0.8-5.3,0.9-6.9c0.1-0.7,0.1-1.3,0.1-1.6l3.1-1.9c3.1-1.6,7.6-4.1,9.4-6.3l-0.2-0.2
				c0.2-0.1,0.2-0.2,0.2-0.2l-2.1-1.4l-0.7-0.6C287.8,214.4,289.5,214.7,291.1,215z"/>
			<polygon class="st12" points="269.9,394.8 271.4,396.3 280.9,383.9 289,372.5 288.8,370.3 288.7,370.2 269.8,394.8 			"/>
			<polygon class="st13" points="269.9,394.8 288.8,370.3 288.7,370.2 288.5,367.1 268.3,393.3 269.8,394.8 			"/>
			<polygon class="st12" points="286.8,349.5 258,383.5 256.4,382 286.6,346.4 			"/>
			<path class="st13" d="M286.6,346.4L256.4,382l-1.6-1.5l31.5-37.1c0.1,0.9,0.1,1.4,0.1,1.4L286.6,346.4z"/>
			<path class="st12" d="M284.4,325.3L251,364.6l-0.1-3.3l33.1-39C284.2,323.3,284.3,324.3,284.4,325.3z"/>
			<path class="st13" d="M284,322.3L284,322.3l-33.1,39l-0.1-3.3l32.8-38.7C283.8,320.3,283.9,321.3,284,322.3z"/>
			<path class="st12" d="M281.2,296.2l-30.9,38.3l0,0.3l0.1,3.1l31.1-38.7c-0.1-1-0.2-1.9-0.3-2.8L281.2,296.2z"/>
			<path class="st13" d="M281.2,296.2c-0.1-1-0.2-1.9-0.3-2.8l-30.6,38l0.1,3.1l0,0.3l30.9-38.4L281.2,296.2z"/>
			<path class="st12" d="M277.4,276.2l-27.7,34.3l-0.1-3.4l26.9-33.4C276.8,274.5,277.1,275.3,277.4,276.2z"/>
			<path class="st13" d="M276.6,273.7l-26.9,33.4l-0.1-3.4v0l26.1-32.4C276,272,276.3,272.8,276.6,273.7z"/>
			<path class="st12" d="M267.2,257.8l-1.4,1.7l0,0l-1.4,1.7l-7.9,9.8l0,0.3c-0.3,1.5-0.7,3.1-1.2,4.8l10.9-13.6l1.4-1.7l0,0
				l1.4-1.7l-1.7-1.2L267.2,257.8z"/>
			<path class="st13" d="M267.2,257.8l-1.7-1.2l-1.4,1.7l0,0l-1.4,1.7l-5.8,7.2c0,1.2-0.2,2.5-0.5,3.9l0,0.3l8.1-10l1.4-1.7l0,0
				l1.4-1.7L267.2,257.8z"/>
			<path class="st12" d="M273.4,262.3c-0.1,1-0.2,1.8-0.2,2.5v0l-5.6-4.1l-1.7-1.2l-0.1-0.1l-1.7-1.2l-12-8.8l0,0v0
				c0-0.3,0-0.6-0.1-1c0-0.6-0.1-1.2-0.2-1.9l13.6,10l1.7,1.2l0.1,0.1l1.7,1.2L273.4,262.3z"/>
			<path class="st13" d="M252.1,249.5c0.1,1.1,0.2,2.1,0.4,3l10.2,7.5l1.7,1.2l0.1,0.1l1.7,1.2l8.3,6.1c-0.4-0.9-0.8-1.6-1-2
				c-0.2-0.3-0.2-0.9-0.2-1.6v0l-5.6-4.1l-1.7-1.2l-0.1-0.1l-1.7-1.2L252.1,249.5L252.1,249.5L252.1,249.5z"/>
			<path class="st12" d="M256.2,230.6l-0.4,0.3l-0.8,0.7l-0.1,0.1l-1.8-1.3l-0.1-0.1l-1.8-1.3l-8.2-6l0-0.1c0-0.2-0.1-0.5-0.1-0.7
				c0-0.2-0.1-0.5-0.1-0.7v0l0.4-1l0.1,0c0.4,0.9,0.9,1.7,1.6,2.3c0.2,0.1,0.4,0.3,0.7,0.5c0.2,0.1,0.4,0.3,0.6,0.4
				c1.7,1.1,4.4,2.8,6.5,4.1c0.8,0.5,1.4,0.9,1.9,1.2c0,0,0.1,0,0.1,0.1c0.6,0.3,0.9,0.5,0.9,0.5L256.2,230.6z"/>
			<path class="st12" d="M276.8,245c-0.1,0.3-0.1,0.7-0.2,1c0,0.1,0,0.2,0,0.3c-0.1,0.3-0.1,0.6-0.2,1l0,0.1l-7.5-5.5h0.2l0.6,0
				c0,0,1,0.2,2.1-0.6L276.8,245z"/>
			<path class="st13" d="M255.1,231.6l-1.8-1.3l-0.1-0.1l-1.8-1.3l-8.3-6.1l0,0.1c0.1,0.8,0.3,1.6,0.4,2.4c0,0.2,0.1,0.3,0.1,0.5
				l6.1,4.5l1.8,1.3l0.1,0.1l1.8,1.3L255.1,231.6L255.1,231.6z"/>
			<path class="st13" d="M276.4,247.3l0,0.1c-0.2,0.7-0.3,1.5-0.5,2.2l-10.6-7.8l3.6,0h0.2L276.4,247.3z"/>
			<path class="st12" d="M257,238.8l-7.1,1.5c-0.3-0.7-0.7-1.4-1-2l8.1-1.7L257,238.8z"/>
			<path class="st12" d="M281.6,231.5c-0.4,0.9-0.9,1.7-1.3,2.5l-5.5,1.1c0.2-0.8,0.3-1.6,0.4-2.3L281.6,231.5z"/>
			<path class="st13" d="M257,241.1l-6.3,1.3c-0.3-0.7-0.5-1.4-0.9-2.1l7.1-1.5L257,241.1z"/>
			<path class="st13" d="M280.3,234.1c-0.4,0.9-0.8,1.7-1.2,2.5l-5,1c0.2-0.6,0.4-1.2,0.5-2c0-0.1,0-0.3,0.1-0.4L280.3,234.1z"/>
			<path class="st13" d="M256.2,230.6l-1.2,1l-0.1,0.1l-1.6,1.4l-5,4.4c-0.4-0.8-0.8-1.4-1.1-1.9l4.3-3.8l1.6-1.4l0.1-0.1l1.5-1.3
				c0.6,0.3,0.9,0.5,0.9,0.5L256.2,230.6z"/>
			<path class="st12" d="M254.7,228.9l-1.5,1.3l-0.1,0.1l-1.6,1.4l-4.3,3.8c-0.3-0.5-0.5-0.8-0.5-0.8s-0.2-0.4-0.5-1.2l3.6-3.1
				l1.6-1.4l0.1-0.1l1.4-1.2C253.5,228.2,254.2,228.6,254.7,228.9z"/>
		</g>
		<g>
			<path class="st9" d="M305.6,215c-7.7,2.7-15.3,1.2-15.3,1.2l-0.1,0c0,0,0,0,0,0l-13.9,9.5l-0.2,0.2l-11,10.5l10.7-11.8
				c0.1-0.1,0.3-0.1,0.4-0.2c1-0.6,2.1-1.2,3.1-1.9c4.3-2.7,8.2-5.7,9.2-6.5c0.2-0.1,0.2-0.2,0.2-0.2l-2.1-1.4l-1-0.7
				c0.1,0,0.2,0.1,0.3,0.1c1.8,0.5,3.5,0.9,5.1,1.2C298.3,216.4,303,215.8,305.6,215z"/>
			<path class="st9" d="M308.6,213.8c-0.1,0.1-1,0.7-2.9,1.2C306.6,214.7,307.6,214.3,308.6,213.8z"/>
			<path class="st9" d="M265,240.5c-2.4-2.6-6.1-6.6-7.6-8.2c-0.2-0.2-0.3-0.3-0.6-0.6v0c-0.3-0.2-0.6-0.5-1-0.8
				c-0.5-0.4-1.1-0.9-1.8-1.3c0,0,0,0-0.1-0.1c-0.6-0.4-1.2-0.9-1.8-1.3c-3.7-2.6-8-5.4-9.2-6.1c-0.2-0.1-0.3-0.2-0.3-0.2l0.2-0.5v0
				l0.4-1l0-0.1l0.8-2c0,0-0.5,0.2-1.4,0.4c-0.1,0-0.1,0-0.2,0c-3.3,0.7-11.5,1.9-21.3-1.5c1.2,0.3,10.9,2.7,21.2,0.3l0,0
				c1.1-0.3,2.2-0.6,3.3-1l-0.9,5.2l13.7,9.8C258.6,231.4,262.4,237.1,265,240.5z"/>
			<path class="st9" d="M267.2,242.9c-0.2-0.1-0.6-0.5-1.1-1c-0.3-0.4-0.7-0.8-1-1.3c0.4,0.5,0.8,0.9,1.2,1.3
				C266.8,242.5,267.2,242.9,267.2,242.9z"/>
			<polygon class="st9" points="222.7,215.1 231.9,202.1 222.7,202.8 229.6,203.3 			"/>
		</g>
	</g>
	<ellipse class="st3" cx="263.6" cy="111.5" rx="40.4" ry="22.1"/>
</g>
<path class="st7" d="M283.6,464.7v0.7c-2.7,0.7-5.4,1.3-8.2,2c-0.8,0.2-1.5,0.4-2.3,0.5c-8.9,2.2-17.8,4.5-23.8,12.4
	c-5.8,7.6-12.7,13.8-20.8,18.7c-4.2,2.6-8.5,4.4-13.5,4.6c-0.1,0-0.2,0-0.4,0c-1.3,0-2.5,0.2-3.7,0.5l1.4-41.9l3.2-1.4l4.3-1.8
	L283.6,464.7z"/>
<path class="st17" d="M215,503.7c-0.1,0-0.2,0-0.4,0c-1.3,0-2.5,0.2-3.7,0.5c-4.6,0.9-9,3.1-13.7,4c-6,1.2-10.2-1.7-10.8-7.6
	c-1.4-15.1-15-32-35.2-27.7c-3.2,0.7-6.3,0.5-8.8-0.7c-3.8-1.8-7.7-3.4-11.7-4.9c-1.4-0.5-2.8-1-4.2-1.5l89-5.1c0,0,0,0,0,0.1
	c0.1,0.3,0.5,1.4,2.2,6.5C219.6,472.2,216.6,493.4,215,503.7z"/>
<g>
	<circle class="st3" cx="154.6" cy="147.5" r="41.6"/>
	<circle class="st15" cx="154.6" cy="197.1" r="40.6"/>
	<circle class="st3" cx="154.6" cy="199.9" r="40.6"/>
	<linearGradient id="SVGID_6_" gradientUnits="userSpaceOnUse" x1="128.1514" y1="231.5203" x2="181.078" y2="231.5203">
		<stop  offset="0" style="stop-color:#DD5910"/>
		<stop  offset="1" style="stop-color:#FF9E15"/>
	</linearGradient>
	<path class="st14" d="M181.1,192.8v35.6c0,3.4-2,6.5-4.9,8.2v33.6c0,5.4-4.9,9.8-11,9.8h-18.8c-6.1,0-11-4.4-11-9.8v-32.6
		c-4.2-1.3-7.3-5-7.3-9.3v-35.6c0-5.4,4.9-9.8,11-9.8h31C176.2,182.9,181.1,187.3,181.1,192.8z"/>
	<g>
		<g>
			<path class="st17" d="M225.7,322.3c-0.1,0.8-0.2,1.7-0.4,2.7c-0.1,0.6-0.2,1.2-0.3,1.8c-0.1,0.9-0.3,1.8-0.4,2.8
				c-0.1,0.6-0.2,1.2-0.3,1.9c-0.5,3.1-1.2,6.5-1.9,10.1c-0.2,1.1-0.4,2.1-0.7,3.2c-0.2,1.1-0.4,2.2-0.7,3.3c0,0,0,0,0,0
				c-0.3,1.6-0.7,3.3-1.1,5c-0.3,1.1-0.5,2.3-0.8,3.5c-0.2,1.1-0.5,2.3-0.8,3.4c-1.8,7.8-3.7,15.7-5.5,22.7c-0.1,0.5-0.3,1-0.4,1.5
				c-0.1,0.5-0.3,1-0.4,1.5c-0.2,0.7-0.4,1.5-0.6,2.2c-0.1,0.2-0.1,0.5-0.2,0.7c-0.1,0.5-0.3,0.9-0.4,1.4c0,0,0,0,0,0
				c-0.1,0.5-0.2,0.9-0.4,1.4c0,0,0,0,0,0c-0.1,0.4-0.2,0.9-0.4,1.3c0,0,0,0,0,0c-0.2,0.7-0.4,1.3-0.5,1.9c-0.1,0.2-0.1,0.4-0.2,0.6
				c-0.2,0.8-0.5,1.6-0.7,2.3c0,0,0,0,0,0c-0.2,0.8-0.5,1.5-0.7,2.1c-0.1,0.2-0.1,0.3-0.2,0.5c-0.1,0.2-0.1,0.3-0.2,0.5
				c-1.1,3.4-2.1,5.7-2.8,6.5c0,0-0.6,5.1,0.8,11c1.5,5.9-0.3,21.2-0.3,21.2s4.3,6.8,7.8,15.3c3.5,8.5,4.6,12.4,4.6,12.4h-87
				c-9.2-3.4-18.6-6-28.2-8.1l-0.1,0.1l-0.1-0.2c-4-0.9-8-1.7-12-2.5c-0.5-0.1-1.1-0.2-1.6-0.3c-1.2-0.2-2.4-0.5-3.5-0.7
				c-1.2-0.2-2.4-0.6-3.6-1c-0.8-0.3-1.5-0.5-2.3-0.8c-0.9-0.4-1.8-0.7-2.7-1.1c-3.6-1.6-7.1-2.8-11.2-1.5c-1.8,0.5-3.6,0.2-5.3-0.2
				c2.5-16,10-54.9,10-54.9s-1.8-3.9,1.9-14.3c0.9-2.7,2.8-8.9,5.1-16.6c6.6-22.3,16.5-57.3,16.5-57.3s5.7-17.5,9.6-20.7
				c0.2-0.1,0.3-0.2,0.4-0.3c3.4-1.9,15.1-7.9,18.2-9.5h0c0.1,0,0.1-0.1,0.2-0.1c0,0,0,0,0,0c0.2-0.1,0.3-0.1,0.4-0.2h0
				c0,0,0,0,0.1,0c0,0,0.1,0,0.1,0c0,0,0,0,0,0v0c0,0,2.6-4,6.1-8.2c0.1-0.1,0.2-0.2,0.3-0.3c0-0.1,0.1-0.1,0.1-0.2
				c0.1-0.2,0.3-0.4,0.5-0.5c0.6-0.7,1.3-1.5,1.9-2.2c0.2-0.3,0.5-0.5,0.7-0.8c0.2-0.3,0.5-0.5,0.8-0.8c0.1-0.1,0.2-0.2,0.3-0.3
				c0.1-0.1,0.2-0.2,0.4-0.4c0,0,0,0,0.1-0.1c0.2-0.2,0.5-0.4,0.7-0.7c0.1-0.1,0.2-0.2,0.3-0.3c0.1-0.1,0.2-0.2,0.3-0.2
				c0.1,0,0.1-0.1,0.2-0.1c0.1,0,0.1-0.1,0.2-0.2l0.2-0.1c0.1-0.1,0.2-0.2,0.3-0.3v0h0c0,0,0,0,0,0.1c0,0,0,0.1-0.1,0.2
				c0,0,0,0,0,0.1c0,0,0,0.1,0,0.1c0,0,0,0.1,0,0.1c0,0.1,0,0.1,0,0.2c0,0.1,0,0.2-0.1,0.4c0,0.1-0.1,0.2-0.1,0.3c0,0,0,0,0,0
				c0,0.1,0,0.2-0.1,0.3c0,0.1-0.1,0.2-0.1,0.4c0,0.1,0,0.2,0,0.3c0,0,0,0.1,0,0.1c0,0.1,0,0.3-0.1,0.4c0,0.1,0,0.2,0,0.3
				c0,0.1,0,0.3-0.1,0.4c-0.1,0.4-0.1,0.8-0.1,1.2c0,0.3-0.1,0.5-0.1,0.8c-0.1,0.9-0.1,1.9-0.1,2.8c0,0.1,0,0.3,0,0.4
				c0,0,0,0.1,0,0.1c0,0.1,0,0.3,0,0.4c0,0.2,0,0.3,0,0.5v0c0,0.3,0.1,0.6,0.1,0.9c0,0.1,0,0.1,0,0.2c0,0.1,0,0.3,0.1,0.4
				c0,0,0,0.1,0,0.1c0,0.2,0.1,0.5,0.2,0.7c0.1,0.3,0.2,0.7,0.4,1c0,0,0,0.1,0,0.1c0,0.1,0.1,0.2,0.1,0.3c0.1,0.1,0.1,0.2,0.2,0.4
				c0,0.1,0.1,0.2,0.2,0.3c0,0,0.1,0.1,0.1,0.1c0,0,0.1,0.1,0.1,0.1c0.1,0.1,0.2,0.3,0.3,0.4c0.1,0.1,0.2,0.2,0.3,0.3
				c0,0,0,0,0.1,0.1c0.1,0.1,0.2,0.1,0.2,0.2c0.1,0,0.1,0.1,0.2,0.1c0.1,0.1,0.2,0.1,0.3,0.2l0.3-0.2l8.2-6.8l11.9-9.9l17.2-10.7
				c0,0,0.1,0,0.3-0.1h0c0.1,0,0.1,0,0.2,0c1-0.1,3-0.2,3.3,1.6c0.4,2.4,2.1,7.6,2.1,7.6s-0.1,1.5,0.4,2.9c0.2,0.5,0.5,0.9,0.8,1.4
				c1.5,1.8,5.5,6.3,8.3,7.5c2.8,1.1,5.9,1.4,8.7,4c2.6,2.5,8,2.7,12.8,7.7c0.2,0.2,0.3,0.3,0.5,0.5c0.2,0.2,0.3,0.4,0.5,0.5
				c0.3,0.3,0.6,0.7,0.8,1c0.3,0.4,0.6,0.8,0.9,1.2c0,0,0,0,0,0c1.3,1.7,2.7,3.8,4.1,6.2c0.2,0.3,0.3,0.6,0.5,0.9
				c2.5,4.7,4.8,10.6,5.7,17.6C226.2,313.8,226.3,317.9,225.7,322.3z"/>
			<path class="st18" d="M141.3,287.5l-0.3,1.4c0,0-5.8,8.5-6.8,9.1c-1.1,0.5-4.4,1.4-4.4,1.4v-4.2l7-7.7l4-1.5L141.3,287.5z"/>
			<path class="st13" d="M175.3,253.3c-2.8,1.9-17.1,12-21.6,18.5c-4.1,6.1-11.3,15.1-12.4,16.5c-0.1,0.1-0.2,0.2-0.2,0.2l-1.3-1.5
				l-1.1,0.9l-2.6,2l1,2.4l-1.9,2.7c0,0-3.7-0.5-4.2,1.1c-0.5,1.6,0,5,0,5s-8-0.4-10-0.1h0c-0.2,0-0.4,0.1-0.4,0.1
				c-0.5,0.5-3.4-6.3-2.7-13.4l2.3-3.3l-1-3.3l2.6-3.8c0.5-0.2,0.7-0.4,0.7-0.4s7.1-10.8,13.4-15.6c0,0.2-0.4,1.4-0.7,3.2
				c0,0.1,0,0.3-0.1,0.4c-0.4,2.4-0.6,5.6,0.1,8.1c0.4,1.5,1.2,2.9,2.4,3.7c0.1,0,0.2,0.1,0.3,0.2l8.5-7.1c0,0,0,0,0,0l11.8-9.8
				l17.3-10.7c0,0,0.1,0,0.3-0.1C176.5,250.8,176.7,252.4,175.3,253.3z"/>
		</g>
		<path class="st19" d="M138.4,285.4l-1.6,2.2c0,0-1.4,3.2-1.7,4c-0.3,0.7-2.6,2.7-4.2,2.9c-1.7,0.2-1.7,4.2-1.7,4.4l-8.2,2.3h0
			l-0.4,0.1l-0.7-12.7l3.4-5.3l-1-3.4c0.9-1.7,9.2-10.9,13-15.2c0,0.1,0,0.3-0.1,0.4c-0.4,2.4-0.6,5.6,0.1,8.1
			c0.4,1.5,1.2,2.9,2.4,3.7c0.1,0,0.2,0.1,0.3,0.2C136.2,279.8,138.4,285.4,138.4,285.4z"/>
		<path class="st18" d="M109.5,314.5c0,0-8.9,32.9-9.6,34.7c-0.7,1.8-4.4,11.8-4.4,11.8s13.2-29.3,18.4-36.2
			C119,317.9,109.5,314.5,109.5,314.5z"/>
		<g>
			<path class="st20" d="M135.2,297.1l-0.2,0.3l-8.1,11.1l-3.6,4.9l-4.9,6.7l-0.2,0.3l0,0L104.6,339c0,0,0.7-5.1,1.8-11.6
				c0.4-2,0.7-4.1,1.2-6.3c0.2-0.9,0.4-1.9,0.7-2.9c0.6-2.2,1.4-4.6,2.4-7.1c1.6-4.2,3.4-8.6,4.9-11.9l0.2-0.4
				c1.5-3.3,2.2-5.6,2.2-5.6s1.2,7.3,2.6,8c0.3,0.1,0.9,0.1,1.7-0.1C126.2,300.4,134.7,297.2,135.2,297.1
				C135.2,297.1,135.2,297.1,135.2,297.1z"/>
			<path class="st21" d="M135.2,297.1l-0.2,0.3l-8.1,11.1l-4.5-7.3C126.2,300.4,134.7,297.2,135.2,297.1z"/>
			<path class="st21" d="M123.3,313.4l-5.2,7.1c0,0-5.9-5.8-7.4-9.4c1.6-4.2,3.4-8.6,4.9-11.9l0.2-0.4c0,0-0.2,6.8,2,9.3
				C119.9,310.6,123.3,313.4,123.3,313.4z"/>
			<path class="st21" d="M118.4,320.1l-0.2,0.3c-1.9-0.2-9.3-0.3-11.7,7c0.4-2,0.7-4.1,1.2-6.3c0.2-0.9,0.4-1.9,0.7-2.9h9
				L118.4,320.1z"/>
		</g>
		<path class="st18" d="M204.9,407.3c0,0-0.6,5.1,0.8,11c1.5,5.9-0.3,21.2-0.3,21.2s4.3,6.8,7.8,15.3c2.1,5.2,3.4,8.6,4,10.5
			l-0.3,1.9l-0.3,1.9l-0.9-1.9l-4.2-9l-8-16.1c0,0,0.6-15.2,1-19.8c0.3-4.6-2.2-13.4-2.2-13.4c6.6-10.5,13.6-42.3,13.6-42.3
			s9.9-45.8,8.6-56.6c-1.4-10.8-8.6-21.7-11.6-25.8c-3-4-12.7-8.5-15.3-10.3c-2.5-1.8-8.9-2.2-8.9-2.7c0-0.6-7.2-7.4-7.6-7.6
			c-0.5-0.2-12.9,12.5-12.9,12.5s-7,17.5-7.5,18.2c-0.5,0.7-1.4,1.4-2.2,2c-0.8,0.6-7.3,0.9-10.9,1.2c-3.6,0.3-0.5,4.2,0.8,8.4
			c1.4,4.2-0.2,4.6-0.2,4.6c-1.1,1.5-20.1,17.5-21.6,17.8c-1.5,0.4-13,14.5-13,14.5s-7.5,26.7-10.5,37.4
			c-3.1,10.6-11.7,19.3-11.7,19.3s0.1-16.6,0-17.1c-0.1-0.5,1.6-10.3,4.4-16.9c2.7-6.6,11.1-16.6,17.5-24.8
			c6.4-8.3,28.6-28,30.1-28.9c1.4-1,3.8-2.4,4.1-3.2c0.3-0.8-3.7-9.8-4.1-11.1c-0.4-1.2,1.9-1.7,5.5-2.9c3.7-1.2,9-0.7,9.8-0.7
			c0.8,0.1,7.1-15.7,8.1-18.1c1-2.4,13.4-12.8,13.4-12.8l1-5.4c0.2,0.7,0.4,1.1,0.4,1.1s-0.3,2.5,1.3,4.3c1.5,1.8,5.5,6.3,8.3,7.4
			c2.8,1.1,5.9,1.4,8.7,4c2.8,2.6,8.7,2.8,13.8,8.7c5,5.9,14.4,19.6,12.1,39.1C223.5,341.8,209.2,402.4,204.9,407.3z"/>
		<path class="st18" d="M91.4,400.3l2.9,0.4l3.8,10.8c0,0,4-1.1,5.1,2.4l0.5,1.9c0,0-3-3-4.1-3.1c-1.1-0.1-1.3,1.1-1.3,1.1l-0.8,2
			c0,0,0.3,4.9,2.6,5.4l2.5-1.6c0,0,1.2-1,1.1,0.9c-0.1,1.8-0.4,3.2-0.4,3.2s-1-0.1-1.2,0.4s-0.1,1.4-0.4,1.3s-0.5-2.4-1.5-2.6
			c-1-0.2-1.5,0.1-1.8-0.6s0.9,0.3-0.3-0.7s-2.4-3.4-2.1-5.3c0.2-1.9,0.7-3.8,0.7-3.8L91.4,400.3z"/>
		<path class="st18" d="M101.1,448.8l-0.2,5.8c0,0,0.8,1.5,1.6,2c0.8,0.5,1-0.2,1-0.4s0.4-2.4,0.4-2.4l1.7,1.6l-1.2,2.5l-1.9,1.4
			l-0.1,0.1l-0.1-0.2l-3-3.4l0.7-9.2l6.4,2.6v2.1L101.1,448.8z"/>
		<path class="st18" d="M171.1,306.1c0,0-5.3,14.1-5.3,16.7s0.3,17.2,0,17.9s-2,4.1-2.2,5.6c-0.2,1.5,0,26.5,0,26.5
			s-7,13.3-7.3,15.6s-1.4,13.3-1.4,13.3s-7.8,3.7-10,5.9c-2.2,2.2-4.6,4.2-4.6,4.2l-9.3,11.7l-10.7,15.5l-3.7,6.6
			c0,0-7.8,8.3-11,9.6c0,0,5-3.3,10.4-11.6c5.4-8.3,16-23.8,16-23.8s8-10.7,9.7-11.7c0,0,6.8-5.5,10.9-7.9c0,0,1-14.2,3.2-17.6
			c2.2-3.4,5.6-9.2,5.4-12.9c-0.2-3.7-0.5-23.1,0.7-26.3c1.2-3.2,2.9-8,2.9-12.7s-2.5-6.3,1.9-15.5S171.1,306.1,171.1,306.1z"/>
		<g>
			<path class="st18" d="M159.2,325.7l1.2,8.9l0,0.3l-0.3,0c-2.7,0.3-5.4,0.6-8.2,0.9c-1.4,0.1-2.7,0.3-4.1,0.3
				c-1.4,0.1-2.7,0.2-4.1,0.1c1.4,0,2.7-0.2,4.1-0.3c1.4-0.2,2.7-0.3,4.1-0.5c2.7-0.4,5.4-0.8,8.1-1.2l-0.3,0.4l-1.5-8.9
				L159.2,325.7z"/>
		</g>
		<g>
			<path class="st18" d="M158,322.9c-3.7,0.9-7.4,1.4-11.2,1.9c-3.7,0.5-7.5,0.9-11.3,0.9c3.7-0.9,7.4-1.4,11.2-1.9
				C150.5,323.3,154.2,323,158,322.9z"/>
		</g>
		<path class="st18" d="M185.6,438.9c-1.8,2.2-19,23.6-23.2,28.4h-4.5C157.8,467.3,182.5,442.6,185.6,438.9z"/>
		<path class="st18" d="M195.4,462.9l-1.5,2.3c0,0-10.6-1.2-15.5-1.2c-1.2,0-3.1,0-3.1,0l-1.7-1.8
			C173.5,462.2,194.1,463.2,195.4,462.9z"/>
		<path class="st18" d="M89.9,435.2c0,0.8,0,0-0.9,0.7c-0.9,0.7-0.6,12-0.6,12c-2.5,3.4-4.9,5.5-6.8,6.8c-0.8-0.3-1.5-0.5-2.3-0.8
			c3.7-2.6,6.3-6,6.7-6.6c0.5-0.8-0.2-1.4-0.2-1.4l-6.1,4.3c0.2-0.3,3.9-4.9,6.1-7.3c2.3-2.5,1-10.3,1-10.3
			c1.7-2.8,1.2-15.3,1.2-15.3c0.3-0.7,1.7-8.9,1.7-8.9C90.3,410.3,89.9,434.4,89.9,435.2z"/>
		<path class="st18" d="M90.3,456.7c-0.5-0.1-1.1-0.2-1.6-0.3l-0.2-3.2l1.5,0.6L90.3,456.7z"/>
		<path class="st18" d="M87.4,340.6c-0.2,10.1,2.5,60.5,2.6,63.5l-5.4-57l-7.2,25.1l-0.4-6.9c6.6-22.3,16.5-57.3,16.5-57.3
			s5.7-17.5,9.6-20.7c-1.8,3.6-4.1,8.3-4.5,9.8C98,299.6,87.6,330.1,87.4,340.6z"/>
		<g>
			<path class="st22" d="M120.2,284.6c0,0,3.6-3.7,4.8-3.2c0,0,1.2-2.2-0.8-2.1C122.3,279.5,120.1,283.4,120.2,284.6z"/>
			<path class="st22" d="M135.3,273.3c-1.6,1.1-3.3,2.1-3.9,2.1c-1.3,0-0.4-1.8,0-5.3c0.2-2.1,2.2-3.9,3.8-4.9
				C134.9,267.5,134.6,270.7,135.3,273.3z"/>
			<path class="st22" d="M146.6,270c-2.9,3.3-6.6,7.3-7.5,8.2c-1.6,1.4-9.4,6.1-9.8,6.4c0.1-0.2,2.3-4.2,2.8-5.7
				c0.5-1.5,2.1-0.8,3.5-0.1c0.7,0.4,1.5-0.7,2.2-1.9c0.1,0,0.2,0.1,0.3,0.2L146.6,270z"/>
			<path class="st22" d="M139.8,287.1l-1.1,0.9l-1.9-0.5c0,0-9.6,8.5-9.7,11.3l-1.7,0.6c0,0,0.2-3.6,1.2-4.8c1-1.2,1.9-8.1,3.3-8.6
				c1.4-0.5,3.5-0.3,4.8-1.4c1.2-1.1,2.8-3.2,2.8-3.2S137.4,285.4,139.8,287.1z"/>
		</g>
		<path class="st23" d="M141.2,288.6l-1.3-1.5c1,0.7,1.4,1.1,1.5,1.3C141.6,288.7,141.2,288.6,141.2,288.6z"/>
		<g>
			<path class="st20" d="M135.6,375c0,0,5.1-3.9,7.1-4.9c2-1,6.9-6,4.8-12.6c0,0-3.8-5.1-3.4-6.2c0.4-1.1,1.3-4.9,1.3-4.9l-6.2-6.4
				c0,0-2.3,2-3.7,1.3c-1.4-0.7-2-1.3-2-1.3h-2.8l-1.5,1.4l-3.5-0.4l-4.8,6.3l2.3,5.2c0,0-1.3,4.4-2.3,5.6c0,0-0.5,9.7,7.4,13.4
				S135.6,375,135.6,375z"/>
			<path class="st21" d="M135.5,374.2c0,0,4.9-3.7,6.8-4.6c1.9-1,6.6-5.7,4.6-12c0,0-3.6-4.8-3.2-5.9s1.1-5.1,1.1-5.1l-5.6-6
				c0,0-2.3,1.9-3.6,1.2c-1.3-0.7-2.1-1.3-2.1-1.3h-2.6l-1.4,1.4l-3.4-0.3l-4.4,5.9l2.1,5.1c0,0-1.2,4.6-2.2,5.8c0,0-0.4,9,7.2,12.6
				C136.2,374.6,135.5,374.2,135.5,374.2z"/>
		</g>
		<path class="st20" d="M131.1,348.9c0,0,0.6-1.9,1.7-1.9s1.5,0.9,1.7,1.5c0,0,1.8-0.2,2.1,0.3c0.3,0.5,0.7,1.3-1,1.3
			c0,0,1,4.6,0,5.1c-1,0.5-1.6,0.6-1.6,1.3c-0.1,0.7,2.2,1,2.2,1s0.6,1.5,0.7,2.4s0,3.7,0,3.7s1.5,0,0.8,0s0.1,0.7-0.5,1.1
			c-0.6,0.4,0-0.4-0.6,0.4c-0.6,0.8,0.1,0.9-0.6,0.8c-0.7-0.1,0,0.8-0.7-0.1s-0.3-1.1-0.7-0.9c-0.3,0.2,0.3-0.5-0.3,0.2
			c-0.6,0.7,0.3,1.4-0.7,1.2c-0.9-0.2-0.1,0.3-0.9-0.2c-0.8-0.5-1.8-0.7-1.5-1.3c0.3-0.6,0-2.1,0-2.1s-0.5-0.4-0.5-0.8
			s-0.6,0.1,0-0.4c0.6-0.5,0.3-0.1,0.6-0.5c0.3-0.4,0.3-2.4,0.3-2.7s-0.8-0.4,0-1s0.8-0.5,0.8-0.5s0.9-0.9,0.3-1.2
			c-0.6-0.3,0.5,0.2-0.6-0.3c-1.1-0.4-0.7,0.8-1.1-0.4c-0.4-1.2-0.6-3.9-0.6-3.9s-2.7-0.4-1.1-2.1
			C129.1,349,130.2,348.5,131.1,348.9z"/>
		<path class="st20" d="M124.3,350c0,0,3.7-5,7.8-5.1c4.1-0.2,7.6,1.5,9.1,4c0,0,3.7,0.3,1.4-1.9c-2.3-2.3-6-4.2-10.8-3.8
			c-4.8,0.4-8.6,5.1-8.6,5.1S122,350.3,124.3,350z"/>
		<path class="st20" d="M127.9,363.9c-0.3,0-1.5,0.8-1.9,0c-0.3-0.8-0.3-1.2-0.7-1.8c-0.4-0.6-0.8-0.4-0.8-1.1c-0.1-0.7,0.1-1,0.5-1
			s-0.3,0.6,0.4,0s-0.2-0.1,0.7-0.6c0.8-0.5,1.3-1.2,1.4-0.7c0.2,0.5,0.3,0.5,0.3,1.3c0,0.8,0.6,1.6,0.8,1.8
			c0.2,0.2-0.5-0.3,0.2,0.2c0.7,0.4,1.3,0.5,1.1,1.4c-0.2,0.9-0.5,1.3,0,2s2.5,1.4,2.8,1.6c0.3,0.2,1.6,0.4,1.8,0.4
			c0.2,0,1,0.3,1.4,0c0.4-0.3,2.8-1.8,3-2.5c0.2-0.8-0.8-2.1,0-3s0.3,0.6,0.8-0.8c0.4-1.4,0.4-1.7,0.6-2.1c0.2-0.4,0.4-0.9,0.8-0.6
			s0.9,0.6,1.2,0.6s0-0.6,0.5-0.6s1-0.6,1.1,0s0.1,1.1-0.3,2s-0.9,0.3-0.7,1.8s-0.9,1.9,0,2.4s1.1-0.3,0.9,0.5
			c-0.2,0.8-0.6,1.9-0.9,2.2c-0.3,0.3-1,1.1-2.5,1.5s-1.7,0.8-2.4,0.9s-0.5-0.3-1.8,0s-2.2-0.2-2.8,0c-0.5,0.2,1,1-0.5,0.2
			c-1.5-0.8-1.1-1.4-1.8-1.4s0,0.1-0.7,0c-0.7-0.1-0.3,0.3-0.9-0.6c-0.7-0.9-0.5-2.2-0.7-1.9c-0.8,1-1.3,0.5-1.6,0.5
			c-0.3,0-0.5,0.4-0.3-0.6C126.9,364.8,127.9,363.9,127.9,363.9z"/>
	</g>
	<ellipse transform="matrix(0.456 -0.89 0.89 0.456 -74.9375 248.7942)" class="st3" cx="166" cy="185.7" rx="15" ry="27.5"/>
	<circle class="st3" cx="136.7" cy="185.2" r="4.4"/>
	<circle class="st3" cx="134.5" cy="192.7" r="3.1"/>
	<circle class="st3" cx="134.4" cy="198.6" r="3.1"/>
	<circle class="st3" cx="134.4" cy="204.8" r="3.1"/>
</g>
</svg>
