<?xml version="1.0" encoding="utf-8"?>
<!-- Generator: Adobe Illustrator 22.1.0, SVG Export Plug-In . SVG Version: 6.00 Build 0)  -->
<svg version="1.1" id="Layer_1" xmlns="http://www.w3.org/2000/svg" xmlns:xlink="http://www.w3.org/1999/xlink" x="0px" y="0px"
	 viewBox="0 0 563.4 693.8" style="enable-background:new 0 0 563.4 693.8;" xml:space="preserve">
<style type="text/css">
	.st0{opacity:0.5;}
	.st1{fill:url(#SVGID_1_);}
	.st2{fill:url(#SVGID_2_);}
	.st3{fill:#111111;}
	.st4{fill:url(#SVGID_3_);}
	.st5{fill:url(#SVGID_4_);}
	.st6{fill:url(#SVGID_5_);}
	.st7{fill:#2116F4;}
	.st8{fill:#EBEBFF;}
	.st9{fill:#ACADB7;}
	.st10{fill:#0B0F2A;}
	.st11{fill:#15141A;}
	.st12{fill:#A03C35;}
	.st13{fill:#FFFFFF;}
	.st14{fill:url(#SVGID_6_);}
	.st15{fill:#F200FF;}
	.st16{fill:url(#SVGID_7_);}
	.st17{fill:#2D3445;}
	.st18{fill:#161C2B;}
	.st19{opacity:0.13;fill:#686868;}
	.st20{fill:#AE804F;}
	.st21{fill:#592721;}
	.st22{opacity:0.19;fill:#161616;}
	.st23{fill:#686868;}
	.st24{fill:url(#SVGID_8_);}
	.st25{fill:url(#SVGID_9_);}
	.st26{fill:url(#SVGID_10_);}
	.st27{fill:url(#SVGID_11_);}
	.st28{fill:url(#SVGID_12_);}
	.st29{fill:url(#SVGID_13_);}
	.st30{fill:url(#SVGID_14_);}
</style>
<g class="st0">
	
		<image style="overflow:visible;" width="464" height="581" xlink:href="E69746D5CE95CA64.png"  transform="matrix(1 0 0 1 44.9027 81.8366)">
	</image>
</g>
<g>
	<linearGradient id="SVGID_1_" gradientUnits="userSpaceOnUse" x1="81.6074" y1="364.3527" x2="472.2717" y2="364.3527">
		<stop  offset="0" style="stop-color:#693EAB"/>
		<stop  offset="1" style="stop-color:#AACEFF"/>
	</linearGradient>
	<path class="st1" d="M470.9,442.6c-2.1,7.2-5,14-10.5,19.4c-2.7,2.7-4.4,6.1-4,10c0.6,7-3.1,11.8-8.3,15.7c-1.9,1.4-3.9,2.6-4.5,5
		c-1.5,6.7-5.9,11.7-10.3,16.4c-6.7,7.1-12.6,14.2-16.8,23.5c-0.6,1.3-1.2,2.5-1.9,3.8c-5.5,9.9-14.3,17.5-23.6,24.2
		c-2.7,2-5.5,3.9-7.9,6.2c-5.2,5-11.4,7.2-17.9,8.8c-2.7,0.7-5.4,1.3-8.2,2c-0.8,0.2-1.5,0.4-2.3,0.5c-8.9,2.2-17.8,4.5-23.8,12.4
		c-5.8,7.6-12.7,13.8-20.8,18.7c-4.2,2.6-8.5,4.4-13.5,4.6c-0.1,0-0.2,0-0.4,0c-1.3,0-2.5,0.2-3.7,0.5c-4.6,0.9-9,3.1-13.7,4
		c-6,1.2-10.2-1.7-10.8-7.6c-1.4-15.1-15-32-35.2-27.7c-3.2,0.7-6.3,0.5-8.8-0.7c-3.8-1.8-7.7-3.4-11.7-4.9c-1.4-0.5-2.8-1-4.2-1.5
		c-7.8-2.7-15.9-4.8-24-6.6c-0.1,0-0.2,0-0.3-0.1c-4-0.9-8-1.7-12-2.5c-0.5-0.1-1.1-0.2-1.6-0.3c-1.2-0.2-2.4-0.5-3.5-0.7
		c-1.2-0.2-2.4-0.6-3.6-1c-0.8-0.3-1.5-0.5-2.3-0.8c-0.9-0.4-1.8-0.7-2.7-1.1c-3.6-1.6-7.1-2.8-11.2-1.5c-1.8,0.5-3.6,0.2-5.3-0.2
		c-1.2-0.3-2.4-0.7-3.5-0.9c-2.5-0.4-2.3-2.4-1.8-4.1c0.6-2,1.5-4,2.2-6c0.8-1.9,0.5-3.5-1.3-4.6c-3.8-2.3-5.8-6.2-8.2-9.6
		c-2.7-4-6-7.4-10-10.1c-6.3-4.2-7.6-8.2-5.3-15.4c2.4-7.4,6.8-14,7.5-22c0.7-7.1-0.8-13-6.8-17.1c-5.7-3.9-8.1-9-10-15.8
		c-2.7-9.4-2.7-17.8-0.9-27.3c1.5-7.9,1.8-16,4.3-23.9c1.5-4.8-0.4-9.8-1.3-14.7c-0.5-2.8-1.2-6-0.2-8.4c4.3-10,0.2-18.7-3.4-27.5
		c-0.9-2.3-1.4-4.8-3.5-6.4c-4.3-3.2-4.7-6.9-1.9-11.5c4.5-7.4,1.6-14.4-2-21c-1.4-2.5-2.6-4.6-0.8-7.3c2.2-3.1,1.9-6.3,0.6-9.6
		c-1.8-4.3-2.5-8.7-1.2-13.5c0.7-2.6,0.4-5.7-0.2-8.4c-0.9-4.3-1.1-8.6,0.7-12.5c2.2-4.7,1.4-8.9-1.1-13c-2.3-3.9-3.5-7.6-0.2-11.8
		c2.3-3,0.6-6.2-0.7-9.1c-5.4-12.3-7-25.5-9.8-38.4c-0.5-2.2-0.1-4.5,0.4-6.8c1.5-6.2,2.1-12.4-0.3-18.7c-3.5-8.9,0.6-15.6,7.3-20.9
		c6.8-5.4,13.6-10.6,15.6-19.9c0.8-3.6,4.1-4.5,6.5-4.4c4.9,1.2,7.2-1.5,9.5-3.5c2.7-2.2,5.4-3.9,8.8-4.5c4.9-0.8,9.7-1.6,14.6-2.5
		c5.4-1,8.7,3.3,11.8,6.9c1.5,1.8,2.9,3.7,5,4.6c11.4,4.9,18.1,14.8,25.3,24.1c2.1,2.6,4.5,4.3,8,4.5c8,0.6,9,1.5,9.7,9.3
		c0.2,2,0.9,3.8,2.2,5.3c1.7,1.9,2.8,3.8,0.6,6c-1.6,1.7-1.1,3.6,0.5,4.6c8.4,5.8,9.3,15.3,11.4,23.8c1.5,6.3,3.6,12.3,6.4,17.9
		c1.7,3.4,3.7,6.7,6.1,9.9c5,6.7,9,14,12,21.8c1.9,4.8,4.8,8.9,8.3,12.8c3.5,4,6.2,8.6,8.7,13.2v0c0.9,1.6,1.7,3.3,2.6,5v0
		c0.9,1.7,1.7,3.3,2.6,5c0.2,0.3,0.3,0.6,0.5,0.9c2.7,4.9,5.7,9.6,8.9,14.1c0.3,0.4,0.5,0.8,0.8,1.1c3.7,5.2,7.5,10.2,11.6,15.1
		c0.2,0.3,0.5,0.5,0.7,0.8c4.4,4.9,10.1,6.4,16.1,7.4c0,0,0,0,0.1,0c1.3,0.2,2.6,0.4,4,0.6c3.8,0.5,7.5,1.7,11,3.1h0
		c0.7,0.3,1.5,0.6,2.2,0.9c0,0,0,0,0,0c0.7,0.3,1.3,0.6,2,0.9c0.3,0.1,0.6,0.3,0.9,0.4l0,0c0,0,0,0,0,0c0.5,0.2,1.1,0.5,1.6,0.7
		c0.5,0.2,0.9,0.4,1.4,0.6c1.4,0.6,2.7,1.3,4.1,1.9c3.5,1.6,5.6,4.7,7.8,7.5l0,0c0.3,0.4,0.7,0.9,1,1.3c0,0,0,0,0,0
		c0.4,0.4,0.7,0.8,1.1,1.2c3,3,6.1,5.2,10.7,4.9c0.9-0.1,1.8,0,2.6,0.2c1.5,0.4,2.8,1.1,3.8,2.3c0.6,0.7,1.2,1.5,1.6,2.5
		c1.3,2.7,3.1,4.8,5.7,5.9c0.2,0.1,0.4,0.2,0.7,0.3c0.9,0.3,1.9,0.5,3.1,0.6c1.2,0.1,2.7,0.5,3.4,1.3c4.5,5.6,12,7.3,16.2,13.4
		c2.2,3.2,5,4,8.2,2.8c0.3-0.1,0.6-0.3,1-0.4c0.7-0.3,1.4-0.8,2.1-1.3c0.9-0.7,1.8-1.2,2.6-1.8c0.9-0.6,1.7-1,2.5-1.4
		c6-2.8,9.9-0.5,14.4,7.2c1.6,2.7,3,5.6,5.9,7.4c0.1,0.1,0.2,0.1,0.3,0.2c0,0,0,0,0,0c1,0.7,1.6,1.9,2,3.2c0,0.1,0.1,0.2,0.1,0.3v0
		c3.1,11,10.3,15.9,21.3,14.8c2-0.2,3.8,0.2,5.3,1.7c4,3.8,8,7.7,9.4,13.2c0.4,1.5,1,2.7,2.2,3.6C473.6,429.6,472.9,436,470.9,442.6
		z"/>
</g>
<g>
	
		<linearGradient id="SVGID_2_" gradientUnits="userSpaceOnUse" x1="334.6297" y1="260.6698" x2="364.0206" y2="260.6698" gradientTransform="matrix(0.9442 0.3293 -0.3293 0.9442 153.4377 75.5705)">
		<stop  offset="0" style="stop-color:#DD5910"/>
		<stop  offset="1" style="stop-color:#FF9E15"/>
	</linearGradient>
	<path class="st2" d="M376.1,506l-5.1-1.8c-6.2-2.2-9.6-9.1-7.4-15.3l39.8-114c2.2-6.2,9.1-9.6,15.3-7.4l5.1,1.8
		c6.2,2.2,9.6,9.1,7.4,15.3l-39.8,114C389.2,504.8,382.4,508.1,376.1,506z"/>
	<circle class="st3" cx="345.2" cy="243.7" r="58.1"/>
	<linearGradient id="SVGID_3_" gradientUnits="userSpaceOnUse" x1="323.9985" y1="340.2135" x2="371.5094" y2="340.2135">
		<stop  offset="0" style="stop-color:#DD5910"/>
		<stop  offset="1" style="stop-color:#FF9E15"/>
	</linearGradient>
	<path class="st4" d="M371.5,301.5v35.6c0,3.4-1.8,6.5-4.4,8.2V379c0,5.4-4.4,9.8-9.8,9.8h-16.9c-5.4,0-9.8-4.4-9.8-9.8v-32.6
		c-3.8-1.3-6.5-5-6.5-9.3v-35.6c0-5.4,4.4-9.8,9.8-9.8h27.8C367.1,291.6,371.5,296,371.5,301.5z"/>
	<linearGradient id="SVGID_4_" gradientUnits="userSpaceOnUse" x1="327.8992" y1="335.2498" x2="370.3816" y2="335.2498">
		<stop  offset="0" style="stop-color:#DD5910"/>
		<stop  offset="1" style="stop-color:#FF9E15"/>
	</linearGradient>
	<path class="st5" d="M370.4,296.5v35.6c0,3.4-1.6,6.5-4,8.2V374c0,5.4-3.9,9.8-8.8,9.8h-15.1c-4.9,0-8.8-4.4-8.8-9.8v-32.6
		c-3.4-1.3-5.8-5-5.8-9.3v-35.6c0-5.4,3.9-9.8,8.8-9.8h24.9C366.4,286.7,370.4,291.1,370.4,296.5z"/>
	<linearGradient id="SVGID_5_" gradientUnits="userSpaceOnUse" x1="321.4246" y1="277.0011" x2="368.9355" y2="277.0011">
		<stop  offset="0" style="stop-color:#DD5910"/>
		<stop  offset="1" style="stop-color:#FF9E15"/>
	</linearGradient>
	<path class="st6" d="M368.9,238.3v35.6c0,3.4-1.8,6.5-4.4,8.2v33.6c0,5.4-4.4,9.8-9.8,9.8h-16.9c-5.4,0-9.8-4.4-9.8-9.8v-32.6
		c-3.8-1.3-6.5-5-6.5-9.3v-35.6c0-5.4,4.4-9.8,9.8-9.8h27.8C364.5,228.4,368.9,232.8,368.9,238.3z"/>
	<g>
		<path class="st7" d="M286.3,392.3c0.8,0.2,1.6,0.3,2.3,0.5C287.9,392.7,287.1,392.5,286.3,392.3z"/>
		<path class="st7" d="M326.1,303.8c-0.4-1.5-0.4-2.9-0.1-4.1C325.8,301,325.7,302.4,326.1,303.8z"/>
		<path class="st7" d="M326.1,303.9c0.2,0.6,0.4,1.1,0.7,1.7C326.5,305,326.3,304.4,326.1,303.9z"/>
		<path class="st7" d="M327.4,295.8c-0.2,0.3-0.4,0.8-0.7,1.3C327,296.6,327.3,296.1,327.4,295.8z"/>
		<path class="st7" d="M327.7,306.9c0.4,0.5,0.8,1.1,1.2,1.7C328.6,307.9,328.1,307.3,327.7,306.9c-0.3-0.3-0.5-0.7-0.7-1
			C327.2,306.2,327.5,306.5,327.7,306.9z"/>
		<path class="st7" d="M327.7,295.3c0,0-0.1,0.2-0.3,0.5C327.6,295.5,327.7,295.3,327.7,295.3l0.7-3L327.7,295.3z"/>
		<path class="st7" d="M338.3,327c-0.1-0.3-0.3-0.8-0.6-1.4C338,326.2,338.2,326.7,338.3,327z"/>
		<path class="st7" d="M338.3,327c0.1,0.2,0.1,0.3,0.1,0.3l6.7,16.3l-6.8-16.3C338.4,327.3,338.4,327.2,338.3,327z"/>
		<path class="st7" d="M370.9,293c-0.9-1-1.6-1.9-2.2-2.7C369.3,291.1,370,292,370.9,293z"/>
		<path class="st7" d="M384.4,301.7c-0.7-0.3-1.4-0.6-2-0.9C383.1,301.1,383.7,301.4,384.4,301.7z"/>
		<path class="st7" d="M396.9,417.5c-1,0.1-1.9,0.2-1.9,0.2C395.7,417.5,396.3,417.4,396.9,417.5z"/>
		<path class="st7" d="M414.7,530.8c0,1.7,0,3.5-0.1,5.5c-5.5,9.9-14.3,17.5-23.6,24.2c-2.7,2-5.5,3.9-7.9,6.2
			c-7.3,7.1-16.8,8.5-26,10.8c-0.8,0.2-1.5,0.4-2.3,0.5h-69c0,0-0.1-0.2-0.2-0.6c-1.3-5.1-9.7-41-2.9-79.7
			c5.7-32.8,13.9-57.1,17.2-66.1c0-0.1,0.1-0.3,0.2-0.4c0,0,0,0,0,0c0.8-2.2,1.3-3.4,1.3-3.4l-1.7-7.8l-3-3.7l0-0.9h5l4.3,3.5
			l1.4,1.1l0,0l1.7,1.4c0,0,17.3,4.2,21.5,4.1c0.2,0,0.6,0,1,0c2.5-0.1,8-0.2,13.7-0.4c0.9,0,1.7-0.1,2.6-0.1c0.1,0,0.2,0,0.3,0
			c0.9,0,1.8,0,2.6-0.1c7-0.2,13.1-0.4,13.1-0.4l1-0.2l18.8-4.4c0,0,1.5,1.2,3.7,1.2c1.5,0,3.3-0.4,5.2-2c0.9-0.7,1.7-1.1,2.5-1.4
			c0,0,0.6,6.4,2,8.9c1.5,2.5,1.5,2.5,1.5,2.5l0.3,3.5H397c0,0,0,0.2,0.1,0.5c0.1,0.5,0.2,1.3,0.4,2.2c0.5,2.8,1.2,6.8,1.6,7.6
			c0.2,0.5,2.1,9.1,4.5,20.9C408.2,486.3,414.7,520.4,414.7,530.8z"/>
		<path class="st8" d="M447.1,378.8c0,0-1,0.8-2.5,2c-0.2,0.1-0.4,0.3-0.5,0.4c-0.1,0.1-0.2,0.1-0.3,0.2c-0.2,0.1-0.4,0.3-0.6,0.5
			c-0.1,0.1-0.2,0.2-0.3,0.2c-0.5,0.4-1.1,0.9-1.7,1.3c-0.9,0.7-2,1.5-3,2.2c-0.8,0.6-1.5,1.1-2.3,1.6c-1.3,0.9-2.7,1.8-3.9,2.5
			c-0.4,0.2-0.8,0.4-1.1,0.6c-0.2,0.1-0.4,0.2-0.6,0.3c-0.4,0.2-0.8,0.4-1.1,0.5c-0.2,0.1-0.3,0.1-0.5,0.2l-0.7-4c0,0,0,0,0,0
			c0,0,0,0-0.1,0h0c-0.3,0.1-1.5,0.5-3.2,1c-0.1,0-0.1,0-0.2,0c-0.1,0-0.3,0.1-0.5,0.1c-0.1,0-0.2,0.1-0.2,0.1
			c-0.4,0.1-0.7,0.2-1.1,0.4c-0.4,0.1-0.8,0.3-1.2,0.4c0,0-0.1,0-0.1,0c-0.3,0.1-0.7,0.2-1.1,0.3c-0.2,0.1-0.4,0.1-0.6,0.2
			c-0.4,0.1-0.8,0.2-1.1,0.4c-0.2,0.1-0.5,0.2-0.7,0.2c-0.3,0.1-0.7,0.2-1,0.3c-0.2,0.1-0.4,0.1-0.6,0.2c-1,0.3-2,0.7-3,1
			c-0.3,0.1-0.7,0.2-1,0.3c-0.9,0.3-1.8,0.6-2.7,0.9c-0.2,0.1-0.4,0.1-0.6,0.2c-4.3,1.5-7.8,2.9-8.6,3.5c0,0-0.1,0.1-0.1,0.1
			c-0.1,0.1-0.1,0.1-0.1,0.2c0,0,0,0.1,0,0.2c0,0,0,0.1,0,0.1c0,0,0,0.1,0,0.1c0.3,1.5,1.3,6.8,1.4,13.6v0c0,0.7-0.1,1.3-0.2,1.9
			c0,0.2-0.1,0.4-0.1,0.6c0,0,0,0,0,0c0,0.1,0,0.2-0.1,0.4c-0.1,0.4-0.2,0.8-0.3,1.2c0,0.1,0,0.1-0.1,0.2c0,0.1-0.1,0.2-0.2,0.3
			c0,0-0.1,0.1-0.1,0.1c0,0-0.1,0.1-0.1,0.1c-0.1,0.1-0.1,0.1-0.2,0.1c-0.6,0.2-2.1,0.5-3.4,0.7c-0.1,0-0.1,0-0.2,0
			c-0.6,0-1.2,0-1.9,0.2c-0.8,0.2-1.6,0.7-2.5,1.4c-4.9,4-8.9,0.8-8.9,0.8l-19.9,4.7c0,0-29,1-33.3,1.1c-4.2,0.1-21.5-4.1-21.5-4.1
			l-7.3-6.1h-4.9l0.3-21c0,0-0.1,0-0.2,0c0,0-0.1,0-0.1,0c0,0,0,0,0,0c-0.1,0-0.3,0-0.5-0.1c-0.1,0-0.1,0-0.2,0
			c-0.1,0-0.3-0.1-0.5-0.1c-0.1,0-0.1,0-0.2,0c0,0-0.1,0-0.1,0c-0.3-0.1-0.6-0.1-1-0.2c-0.2,0-0.3-0.1-0.5-0.1
			c-0.2,0-0.4-0.1-0.6-0.1c-0.2,0-0.4-0.1-0.6-0.1c-0.2,0-0.4-0.1-0.7-0.1c0,0,0,0,0,0c-0.2,0-0.5-0.1-0.7-0.1
			c-0.8-0.1-1.6-0.3-2.4-0.5c-0.8-0.1-1.5-0.3-2.3-0.5c-2-0.4-4-0.9-6-1.4c-0.4-0.1-0.9-0.2-1.3-0.3c-1.8-0.5-3.4-0.9-4.8-1.4
			c-0.4-0.1-0.8-0.2-1.1-0.4c-0.2-0.1-0.5-0.2-0.7-0.3c-0.3-0.1-0.6-0.2-0.9-0.4c-0.5-0.2-0.9-0.4-1.1-0.6v4.1c0,0-9.3-8-10.2-10.4
			c-0.1-0.4,0-1.2,0.4-2.4c0.1-0.2,0.2-0.4,0.2-0.7c0.1-0.4,0.3-0.8,0.5-1.2c0.2-0.5,0.5-1.1,0.7-1.7c0.1-0.3,0.3-0.6,0.4-0.9
			c0.2-0.5,0.4-1,0.7-1.5c0.2-0.5,0.5-1,0.7-1.6c0.3-0.7,0.7-1.4,1-2.1c0.1-0.2,0.2-0.4,0.3-0.6c0.5-1.1,1.1-2.2,1.6-3.3
			c0.2-0.4,0.4-0.7,0.5-1.1c0.2-0.4,0.3-0.7,0.5-1.1c0.2-0.4,0.4-0.8,0.6-1.2c0.1-0.1,0.1-0.3,0.2-0.4h0c0.1-0.3,0.2-0.5,0.3-0.8
			c0.1-0.2,0.2-0.5,0.3-0.7c0.1-0.3,0.3-0.6,0.4-1c0,0,0,0,0,0c0.1-0.3,0.3-0.6,0.4-0.9c0,0,0,0,0,0c0.2-0.5,0.4-0.9,0.6-1.4
			c0.2-0.4,0.3-0.8,0.5-1.2c0.1-0.3,0.2-0.5,0.2-0.7c0-0.1,0-0.1,0-0.1c0.2-0.5,0.3-0.9,0.3-1.2c0.1-0.5,0.1-1.1,0.2-1.6
			c0.1-0.4,0.1-0.7,0.2-1.1c0.1-0.5,0.2-0.9,0.2-1.4c0-0.1,0-0.2,0.1-0.3c0.3-1.5,0.6-2.8,0.8-3.7c0.1-0.2,0.1-0.5,0.1-0.6
			c0-0.1,0.1-0.3,0.1-0.4c0-0.1,0-0.2,0.1-0.2c0,0,0,0,0-0.1h0c0-0.2,0.1-0.2,0.1-0.2s0-0.2,0-0.6c0-0.3,0.1-0.9,0.1-1.5
			c0-0.4,0.1-0.8,0.1-1.3c0-0.1,0-0.2,0-0.3c0-0.3,0.1-0.6,0.1-0.9c0-0.3,0.1-0.6,0.1-0.9c0.2-1.5,0.4-3.1,0.6-4.6
			c0.1-0.4,0.1-0.8,0.2-1.2c0.1-0.4,0.2-0.8,0.2-1.2c0.1-0.4,0.2-0.7,0.3-1c0.1-0.3,0.2-0.6,0.3-0.9c0.1-0.4,0.3-0.7,0.4-1
			c0.1-0.2,0.2-0.3,0.3-0.5c0.2-0.3,0.5-0.7,0.8-1.1c0.4-0.5,0.8-1,1.2-1.6c0.2-0.3,0.4-0.5,0.7-0.8c0,0,0,0,0,0
			c0.2-0.2,0.4-0.5,0.7-0.7c0.2-0.3,0.5-0.5,0.7-0.7c0.1-0.1,0.2-0.2,0.2-0.2c0.8-0.8,1.6-1.4,2-1.6c0.9-0.3,2.6-2,6.1-4.3
			c0.3-0.2,0.5-0.4,0.8-0.6c0.7-0.4,1.4-0.8,2.1-1.3c0.4-0.2,0.8-0.4,1.2-0.7c1.2-0.6,2.5-1.3,4-2c9.3-4.2,20-9.8,20-9.8l11.7-10.6
			l-0.7,3c0,0-0.1,0.2-0.3,0.5c0,0.1-0.1,0.2-0.1,0.3c0,0.1-0.1,0.1-0.1,0.2c0,0,0,0.1,0,0.1h0c0,0.1-0.1,0.1-0.1,0.2
			c0,0.1-0.1,0.1-0.1,0.2c-0.1,0.1-0.1,0.3-0.2,0.4c-0.3,0.7-0.6,1.6-0.8,2.5c0,0.1-0.1,0.3-0.1,0.4c0,0.2-0.1,0.5-0.1,0.7
			c0,0.2,0,0.5,0,0.7c0,0.1,0,0.2,0,0.3c0,0.1,0,0.3,0,0.4c0,0.1,0,0.2,0,0.3c0,0.2,0.1,0.4,0.1,0.7c0,0.2,0.1,0.4,0.1,0.6v0
			c0.1,0.3,0.2,0.6,0.3,0.8c0.1,0.3,0.2,0.6,0.4,0.8c0.1,0.1,0.1,0.2,0.2,0.3c0.2,0.3,0.4,0.7,0.7,1c0.1,0.1,0.2,0.2,0.3,0.4
			c0.1,0.1,0.2,0.3,0.3,0.4c0.1,0.1,0.2,0.3,0.3,0.4c0.1,0.1,0.2,0.3,0.3,0.5c0.1,0.2,0.3,0.4,0.4,0.7c0.6,0.9,1.2,1.9,1.8,3
			c0.3,0.5,0.6,1.1,0.9,1.6c1.4,2.7,2.8,5.5,3.9,7.9c0.1,0.2,0.2,0.5,0.3,0.7v0c0.1,0.2,0.2,0.5,0.3,0.7v0c0.1,0.3,0.3,0.7,0.4,1
			c0.1,0.2,0.2,0.4,0.3,0.6c0.1,0.2,0.2,0.4,0.2,0.5c0,0.1,0.1,0.2,0.1,0.3c0.3,0.6,0.5,1.1,0.6,1.4c0,0,0,0,0,0
			c0.1,0.2,0.1,0.3,0.1,0.3l6.8,16.3l20-37.6c0,0,0,0,0,0c0,0,0,0,0,0c0,0,0,0,0-0.1c0-0.1,0.1-0.2,0.1-0.3c0,0,0-0.1,0.1-0.1
			c0-0.1,0.1-0.2,0.1-0.3c0.1-0.3,0.3-0.8,0.4-1.3c0.1-0.2,0.1-0.4,0.2-0.6c0.1-0.2,0.1-0.5,0.2-0.7c0-0.1,0.1-0.2,0.1-0.4
			c0.1-0.3,0.1-0.5,0.2-0.8c0.5-2,0.8-4.3,0.7-6.5c-0.1-0.6-0.2-1.2-0.3-1.8c-0.1-0.6-0.4-1.1-0.6-1.6c-0.1-0.2-0.2-0.3-0.3-0.5
			c-0.1-0.2-0.2-0.3-0.2-0.5c-0.3-0.6-0.5-1-0.7-1.4c0-0.1-0.1-0.2-0.1-0.3c-0.2-0.4-0.3-0.7-0.4-0.9c0-0.1-0.1-0.2-0.1-0.3
			c0-0.1,0-0.1,0-0.1c0.1-0.1,0.3,0.2,0.3,0.2h2c0,0,0.6,1.1,1.8,2.7c0.6,0.8,1.3,1.7,2.2,2.7c2,2.2,4.8,4.7,8.3,6.4h0
			c0.2,0.1,0.5,0.2,0.7,0.3c0,0,0.1,0,0.1,0.1c0.2,0.1,0.5,0.2,0.8,0.4c0,0,0.1,0,0.1,0c0.3,0.1,0.5,0.2,0.8,0.4
			c0.2,0.1,0.5,0.2,0.7,0.3c0.6,0.3,1.3,0.6,2,0.9c0.6,0.3,1.2,0.5,1.8,0.8c0.4,0.2,0.8,0.3,1.2,0.5c0,0,0.1,0,0.1,0
			c0.7,0.3,1.3,0.6,2,0.9c1,0.4,2,0.9,3,1.3c0.7,0.3,1.3,0.6,2,0.9c0.2,0.1,0.5,0.2,0.7,0.3c0.4,0.2,0.8,0.3,1.1,0.5
			c0.4,0.2,0.7,0.3,1.1,0.5c0.4,0.2,0.9,0.4,1.3,0.6c0.1,0,0.1,0.1,0.2,0.1c0.5,0.2,0.9,0.4,1.4,0.6c3.1,1.4,6.1,2.9,8.8,4.2
			c0.2,0.1,0.4,0.2,0.7,0.3c0.6,0.3,1.3,0.7,1.9,1c0.2,0.1,0.5,0.3,0.7,0.4c0.2,0.1,0.4,0.2,0.5,0.3c0.3,0.2,0.7,0.4,1,0.6
			c0.3,0.2,0.7,0.4,1,0.6c0.5,0.3,0.9,0.6,1.3,0.9c0.4,0.3,0.8,0.6,1.1,0.9v0l9.5,18l0,0.1c0.3,0.6,0.6,1.2,0.9,1.8
			c0.3,0.6,0.6,1.3,0.9,1.9c0.2,0.5,0.5,0.9,0.7,1.4c0.2,0.4,0.4,0.8,0.6,1.2c0.1,0.2,0.2,0.5,0.3,0.7c0.2,0.4,0.4,0.9,0.6,1.3
			c0.1,0.1,0.1,0.2,0.2,0.3c0.2,0.3,0.3,0.7,0.5,1c0.2,0.5,0.4,0.9,0.7,1.4c1,2,1.9,4.1,2.9,6.1c0.2,0.4,0.4,0.9,0.6,1.3
			c2.3,4.8,4.5,9.4,6.3,13.3c0.1,0.2,0.2,0.4,0.3,0.6c0.7,1.4,1.3,2.7,1.9,3.9c0.1,0.3,0.2,0.5,0.4,0.8c0.4,0.8,0.7,1.6,1.1,2.2
			c0.1,0.3,0.3,0.5,0.4,0.8c0.3,0.7,0.6,1.2,0.8,1.7c0.1,0.1,0.1,0.3,0.2,0.4C447.1,378.6,447.1,378.8,447.1,378.8z"/>
		<path class="st8" d="M261.2,377.1c0.2-0.5,0.5-1.1,0.7-1.7C261.7,376,261.4,376.6,261.2,377.1z"/>
		<path class="st8" d="M267.6,363.3c0.5-1,1-2.1,1.4-3C268.6,361.3,268.1,362.3,267.6,363.3z"/>
		<path class="st8" d="M270.5,357c0.2-0.4,0.3-0.8,0.5-1.2C270.8,356.2,270.6,356.6,270.5,357z"/>
		<path class="st8" d="M271.5,353.7c0.1-0.5,0.1-1.1,0.2-1.6C271.6,352.6,271.6,353.1,271.5,353.7c0,0.3-0.1,0.7-0.3,1.2
			C271.4,354.4,271.5,354,271.5,353.7z"/>
		<path class="st8" d="M273.3,344c0,0,0-0.2,0-0.6C273.3,343.8,273.3,344,273.3,344c0,0-0.1,0.3-0.2,0.9
			C273.2,344.3,273.3,344,273.3,344z"/>
		<path class="st8" d="M275.1,330.6c0.1-0.3,0.2-0.6,0.3-0.9C275.3,330,275.2,330.3,275.1,330.6z"/>
		<path class="st8" d="M276.2,328.2c0.2-0.3,0.5-0.7,0.8-1.1C276.7,327.5,276.4,327.9,276.2,328.2z"/>
		<path class="st8" d="M278.2,325.6c0.4-0.5,0.9-1,1.3-1.5C279.1,324.6,278.6,325.1,278.2,325.6z"/>
		<path class="st8" d="M296.8,394.4c0.1,0,0.2,0,0.2,0l-0.3,21h0l0.3-21C297,394.5,296.9,394.5,296.8,394.4z"/>
		<path class="st8" d="M365.2,305.9C365.2,305.9,365.2,305.9,365.2,305.9l-20,37.6L365.2,305.9z"/>
		<path class="st8" d="M365.2,305.9c0-0.1,0.2-0.4,0.4-0.9C365.4,305.6,365.2,305.9,365.2,305.9z"/>
		<path class="st8" d="M366.5,291.4c0.3,0.5,0.5,1,0.6,1.6C366.9,292.4,366.7,291.9,366.5,291.4c-0.1-0.2-0.2-0.3-0.3-0.5
			C366.3,291,366.4,291.2,366.5,291.4z"/>
		<path class="st8" d="M424.8,388.6c1.7-0.6,2.9-0.9,3.2-1c0,0,0,0-0.1,0c0,0-0.1,0-0.1,0c0,0-0.1,0-0.1,0
			C427.2,387.8,426.1,388.2,424.8,388.6z"/>
		<path class="st8" d="M428.8,391.5L428.8,391.5l-0.7-4c0,0,0,0,0,0L428.8,391.5z"/>
		<g>
			<path class="st9" d="M398.4,396.9c0,0-3.5-9.4-1.3-16.4c2.2-7,3.7-14.9,3.7-14.9s-2.4,10.2-2.2,17.1S396.6,383,398.4,396.9z"/>
			<path class="st9" d="M389.2,418.6c0,0-1.3-4-8.2-3.8s-66.6,0-66.6,0s2.8,3.8,6.1,3.8s53.6-1.9,56.2,0H389.2z"/>
			<path class="st9" d="M304.6,417.3l-6.7-9.2l-0.7-1c0,0,13.9-14.1,14.4-17.1c0.4-3,2.7-9.8-2.8-14.4c0,0,3.9,5.8,0.3,14.3
				c-3.6,8.4-11.9,15.8-11.9,15.8L304.6,417.3z"/>
			<path class="st9" d="M297.2,391.8V386c0,0-6.6-26.4-6.6-28.9s-0.5-28.6-2.1-31.4s-1.6-2.8-1.6-2.8s3.5,17,2.1,33l4,18.5
				C293,374.3,296.6,382.1,297.2,391.8z"/>
			<path class="st9" d="M286.9,372.1c0,0-8.1-24-8.8-28.2l7,28.2H286.9z"/>
			<polygon class="st9" points="290.4,372.1 289.3,369.3 286.9,362.7 293,374.3 			"/>
			<polygon class="st9" points="273.4,345.9 272.7,368.5 270.6,368.5 			"/>
			<path class="st9" d="M403.1,352.5l6-21.1h-3C406.1,331.5,402.9,348.3,403.1,352.5z"/>
			<path class="st9" d="M403.1,374.5l3-1.3l1.9-9.6C408,363.6,405.8,372.7,403.1,374.5z"/>
			<path class="st9" d="M409.1,331.5c0,0,8.4-1.5,8.6,3.3s5.1,16.4,5.1,16.4l4.2,10.5v3.9c0,0,4-12.2,2.9-17.2
				c-1.1-5-13.1-27.9-13.1-27.9s-2.4-4.2-3.8,1.8C411.5,328.5,409.1,331.5,409.1,331.5z"/>
			<path class="st9" d="M404.4,313.4c0,0-3.6,3.3-5.7,9.1c-2.1,5.7-2.1,5.7-2.1,5.7s0.5-11.5-0.9-14.8s-1.5-3.3-1.5-3.3
				s3.1,3.7,5.1,4.4C401.3,315.2,404.4,313.4,404.4,313.4z"/>
			<polygon class="st9" points="387.2,306 383.7,305.4 381.7,305 388.9,321.3 385.3,307.6 			"/>
		</g>
		<g>
			<path class="st10" d="M396.6,431.9c0,0-0.4,4.8-5.7,4.8c0,0,6.4-0.8,7-1.7L396.6,431.9z"/>
			<path class="st10" d="M378.9,444.8c0,0-32.2,6.1-74.2-5.5c0,0-3.5-0.9-4-2.6c0,0-3.1,3.9,13.8,7c16.9,3.1,51.8,5.1,60.2,3.4
				C374.8,447.1,378.1,446.4,378.9,444.8z"/>
			<path class="st10" d="M300.5,430.7c0,0-1.9,1.7,0.7,3.6c2.7,1.9,15.8,7.4,30,8.5c14.2,1.1,54.6-5.2,54.6-5.2s-45.7,5.1-55.8,3.2
				S304.4,436.3,300.5,430.7z"/>
			<path class="st10" d="M372.6,441.6c0,0,19.7-2.4,21.7-3.8l1.9-1v2.4C396.3,439.2,377.6,443,372.6,441.6z"/>
			<path class="st10" d="M314.2,465.1c0,0,7.4-2,12-0.9s4.6,1.2,4.6,1.2L314.2,465.1z"/>
			<path class="st10" d="M304.2,461.5h17.4c0,0-10-5.8-13.7-2.9C304.2,461.5,304.2,461.5,304.2,461.5z"/>
			<polygon class="st10" points="358.7,464.6 390.8,462.7 366.3,466.4 347.8,466.4 			"/>
			<path class="st10" d="M392.8,499.7c0,0-22.4,17.9-32.9,19.8c-10.5,1.9-21.4,3.8-21.4,3.8l-18,1.7l-7.5,6.8c0,0,13.6,4.1,20.3,1
				s6.6-4.8,12.3-5.6c5.7-0.9,16.7-3.8,19.6-5.6c2.9-1.9,9.1-5.5,9.1-5.5L392.8,499.7z"/>
			<path class="st10" d="M309,497.3c0,0,32.6,3.9,37.5,2.5c4.9-1.4,13.4-5.1,13.4-5.1l12.7,1.3l6.2,1.4c0,0-6.1,2-11,2.4
				c-4.9,0.4-7.5,4.3-7.5,4.3l-14,1.8l-18.1-1.8C328.4,504.1,313.4,498.8,309,497.3z"/>
		</g>
		<g>
			<path class="st11" d="M324,327.6c0.1,0.3,0.2,0.7,0.3,1.2c-0.1,0-0.1,0-0.2,0C324,328.3,324,327.9,324,327.6L324,327.6z"/>
			<path class="st11" d="M372.7,325.2c-0.2,0.3-0.4,0.7-0.8,1.2c0,0,0,0,0,0c-1.7,2.9-5.6,9.3-8.7,15.2c-0.4,0.9-0.9,1.7-1.3,2.5
				c0,0,0,0.1,0,0.1c-0.4,0.9-0.8,1.7-1.2,2.5c-0.9,2.1-1.6,4-1.8,5.2v0c-0.1,0.9-0.3,2-0.5,3.2c-0.1,0.3-0.1,0.7-0.2,1
				c0,0.1,0,0.2,0,0.3c-0.1,0.3-0.1,0.6-0.2,1l0,0.1c-0.2,0.7-0.3,1.5-0.5,2.2c-0.1,0.4-0.2,0.8-0.3,1.1c-0.9,4.1-1.8,8.5-2.3,11.6
				c-0.1,1-0.2,1.8-0.2,2.5v0c0,0.7,0.1,1.3,0.3,1.6c0.2,0.4,0.6,1.1,1,2c0.4,0.8,0.8,1.7,1.2,2.8c0.3,0.7,0.6,1.5,0.9,2.4
				c0,0,0,0,0,0c0.3,0.8,0.5,1.6,0.8,2.4c1.3,4,2.5,9.1,3.2,15.2c0.1,0.6,0.2,1.3,0.2,2c0.1,0.9,0.2,1.8,0.3,2.8l0,0.3v0
				c0.1,0.9,0.2,1.8,0.3,2.8c0.7,5.9,1.4,13.1,2.2,20c0.1,1,0.2,2,0.3,3v0c0.1,1,0.2,2,0.3,3c0.9,8.2,1.6,15.2,1.9,18.1
				c0.1,0.9,0.1,1.5,0.1,1.5l0.1,1.6l0.3,3l1.6,17.7l0.3,3l0,0.1l0.2,2.2l-8,11.3l-9.1,12.8l-0.5-0.4l-1.5-1.4l-0.1-0.1l-1.5-1.4
				l-10.3-9.8l-1.6-1.5l-1.6-1.5l-3.5-3.3l-0.3-12.6l-0.1-3.3l-0.1-3.3L332,448l-0.1-3.1l0-0.3l-0.1-3.1l-0.5-20.9v0l-0.1-3.4v-0.1
				l-0.1-3.4v0l-0.3-11.7c0,0,3.7-8.2,6-16c0.5-1.6,0.9-3.2,1.2-4.8l0-0.3c0.3-1.4,0.5-2.7,0.5-3.9c0-1,0-2-0.3-2.7
				c-1.5-5.1-3.3-7.9-4.2-12c-0.2-0.9-0.3-1.9-0.4-3l0,0v0c0-0.3,0-0.6-0.1-1c0-0.6-0.1-1.2-0.2-1.9v0c-0.2-1.4-0.6-2.8-1.1-4.1
				c-0.3-0.7-0.5-1.4-0.9-2.1c0,0,0,0,0-0.1c-0.3-0.7-0.7-1.4-1-2c-0.2-0.3-0.3-0.6-0.5-0.8c-0.4-0.8-0.8-1.4-1.1-1.9
				c0,0,0-0.1-0.1-0.1c-0.3-0.5-0.5-0.8-0.5-0.8s-0.2-0.5-0.5-1.2c-0.7-1.7-1.9-4.8-2.5-7.6c0-0.2-0.1-0.3-0.1-0.5
				c-0.1-0.8-0.3-1.6-0.4-2.4l0-0.1c0-0.2-0.1-0.5-0.1-0.7c0-0.2-0.1-0.5-0.1-0.7v0l0.4-1l0-0.1c0,0,0,0.1,0,0.1
				c0.4,0.9,0.9,1.7,1.6,2.3c0.2,0.1,0.4,0.3,0.7,0.5c0.2,0.1,0.4,0.3,0.6,0.4c1.7,1.1,4.4,2.8,6.5,4.1c0.8,0.5,1.4,0.9,1.9,1.2
				c0,0,0.1,0,0.1,0.1c0.6,0.3,0.9,0.5,0.9,0.5l0.6,1.1l0.6,1.2v0l0,0.1l0,1.1v0.1l0,2.6l0,0.9l0,2.2v0.1l0,2.2l0,0.6l8.3,0.1l0.8,0
				h0.1l2.6,0h0.2l0.6,0c0,0,1,0.2,2.1-0.6c0.8-0.6,1.8-1.6,2.5-3.7c0.2-0.6,0.4-1.2,0.5-2c0-0.1,0-0.2,0.1-0.4c0,0,0,0,0-0.1
				c0.2-0.8,0.3-1.6,0.4-2.3c0.5-3,0.8-5.3,0.9-6.9c0.1-0.7,0.1-1.3,0.1-1.6l3.1-1.9c3.1-1.6,7.6-4.1,9.4-6.3l-0.2-0.2
				c0.2-0.1,0.2-0.2,0.2-0.2l-2.1-1.4l-0.7-0.6C369.4,324.5,371.1,324.9,372.7,325.2z"/>
			<polygon class="st12" points="351.5,505 353,506.4 362.5,494 370.6,482.7 370.4,480.5 370.3,480.3 351.4,504.9 			"/>
			<polygon class="st13" points="351.5,505 370.4,480.5 370.3,480.3 370.1,477.3 349.9,503.5 351.4,504.9 			"/>
			<polygon class="st12" points="368.5,459.6 339.6,493.7 338,492.1 368.2,456.6 			"/>
			<path class="st13" d="M368.2,456.6L338,492.1l-1.6-1.5l31.5-37.1c0.1,0.9,0.1,1.4,0.1,1.4L368.2,456.6z"/>
			<path class="st12" d="M366,435.4l-33.3,39.3l-0.1-3.3l33.1-39C365.8,433.4,365.9,434.4,366,435.4z"/>
			<path class="st13" d="M365.7,432.4L365.7,432.4l-33.1,39l-0.1-3.3l32.8-38.7C365.4,430.4,365.6,431.4,365.7,432.4z"/>
			<path class="st12" d="M362.8,406.3l-30.9,38.3l0,0.3l0.1,3.1l31.1-38.7c-0.1-1-0.2-1.9-0.3-2.8L362.8,406.3z"/>
			<path class="st13" d="M362.8,406.3c-0.1-1-0.2-1.9-0.3-2.8l-30.6,38l0.1,3.1l0,0.3l30.9-38.4L362.8,406.3z"/>
			<path class="st12" d="M359,386.3l-27.7,34.3l-0.1-3.4l26.9-33.4C358.5,384.6,358.7,385.4,359,386.3z"/>
			<path class="st13" d="M358.2,383.8l-26.9,33.4l-0.1-3.4v0l26.1-32.4C357.6,382.2,357.9,383,358.2,383.8z"/>
			<path class="st12" d="M348.8,367.9l-1.4,1.7l0,0l-1.4,1.7l-7.9,9.8l0,0.3c-0.3,1.5-0.7,3.1-1.2,4.8l10.9-13.6l1.4-1.7l0,0
				l1.4-1.7l-1.7-1.2L348.8,367.9z"/>
			<path class="st13" d="M348.8,367.9l-1.7-1.2l-1.4,1.7l0,0l-1.4,1.7l-5.8,7.2c0,1.2-0.2,2.5-0.5,3.9l0,0.3l8.1-10l1.4-1.7l0,0
				l1.4-1.7L348.8,367.9z"/>
			<path class="st12" d="M355,372.5c-0.1,1-0.2,1.8-0.2,2.5v0l-5.6-4.1l-1.7-1.2l-0.1-0.1l-1.7-1.2l-12-8.8l0,0v0c0-0.3,0-0.6-0.1-1
				c0-0.6-0.1-1.2-0.2-1.9l13.6,10l1.7,1.2l0.1,0.1l1.7,1.2L355,372.5z"/>
			<path class="st13" d="M333.7,359.6c0.1,1.1,0.2,2.1,0.4,3l10.2,7.5l1.7,1.2l0.1,0.1l1.7,1.2l8.3,6.1c-0.4-0.9-0.8-1.6-1-2
				c-0.2-0.3-0.2-0.9-0.2-1.6v0l-5.6-4.1l-1.7-1.2l-0.1-0.1l-1.7-1.2L333.7,359.6L333.7,359.6L333.7,359.6z"/>
			<path class="st12" d="M337.8,340.7l-0.4,0.3l-0.8,0.7l-0.1,0.1l-1.8-1.3l-0.1-0.1l-1.8-1.3l-8.2-6l0-0.1c0-0.2-0.1-0.5-0.1-0.7
				c0-0.2-0.1-0.5-0.1-0.7v0l0.4-1l0.1,0c0.4,0.9,0.9,1.7,1.6,2.3c0.2,0.1,0.4,0.3,0.7,0.5c0.2,0.1,0.4,0.3,0.6,0.4
				c1.7,1.1,4.4,2.8,6.5,4.1c0.8,0.5,1.4,0.9,1.9,1.2c0,0,0.1,0,0.1,0.1c0.6,0.3,0.9,0.5,0.9,0.5L337.8,340.7z"/>
			<path class="st12" d="M358.4,355.1c-0.1,0.3-0.1,0.7-0.2,1c0,0.1,0,0.2,0,0.3c-0.1,0.3-0.1,0.6-0.2,1l0,0.1l-7.5-5.5h0.2l0.6,0
				c0,0,1,0.2,2.1-0.6L358.4,355.1z"/>
			<path class="st13" d="M336.7,341.7l-1.8-1.3l-0.1-0.1L333,339l-8.3-6.1l0,0.1c0.1,0.8,0.3,1.6,0.4,2.4c0,0.2,0.1,0.3,0.1,0.5
				l6.1,4.5l1.8,1.3l0.1,0.1l1.8,1.3L336.7,341.7L336.7,341.7z"/>
			<path class="st13" d="M358,357.4l0,0.1c-0.2,0.7-0.3,1.5-0.5,2.2l-10.6-7.8l3.6,0h0.2L358,357.4z"/>
			<path class="st12" d="M338.6,349l-7.1,1.5c-0.3-0.7-0.7-1.4-1-2l8.1-1.7L338.6,349z"/>
			<path class="st12" d="M363.2,341.7c-0.4,0.9-0.9,1.7-1.3,2.5l-5.5,1.1c0.2-0.8,0.3-1.6,0.4-2.3L363.2,341.7z"/>
			<path class="st13" d="M338.6,351.3l-6.3,1.3c-0.3-0.7-0.5-1.4-0.9-2.1l7.1-1.5L338.6,351.3z"/>
			<path class="st13" d="M361.9,344.3c-0.4,0.9-0.8,1.7-1.2,2.5l-5,1c0.2-0.6,0.4-1.2,0.5-2c0-0.1,0-0.3,0.1-0.4L361.9,344.3z"/>
			<path class="st13" d="M337.8,340.7l-1.2,1l-0.1,0.1l-1.6,1.4l-5,4.4c-0.4-0.8-0.8-1.4-1.1-1.9l4.3-3.8l1.6-1.4l0.1-0.1l1.5-1.3
				c0.6,0.3,0.9,0.5,0.9,0.5L337.8,340.7z"/>
			<path class="st12" d="M336.3,339.1l-1.5,1.3l-0.1,0.1l-1.6,1.4l-4.3,3.8c-0.3-0.5-0.5-0.8-0.5-0.8s-0.2-0.4-0.5-1.2l3.6-3.1
				l1.6-1.4l0.1-0.1l1.4-1.2C335.1,338.3,335.8,338.7,336.3,339.1z"/>
		</g>
		<g>
			<path class="st9" d="M387.2,325.2c-7.7,2.7-15.3,1.2-15.3,1.2l-0.1,0c0,0,0,0,0,0l-13.9,9.5l-0.2,0.2l-11,10.5l10.7-11.8
				c0.1-0.1,0.3-0.1,0.4-0.2c1-0.6,2.1-1.2,3.1-1.9c4.3-2.7,8.2-5.7,9.2-6.5c0.2-0.1,0.2-0.2,0.2-0.2l-2.1-1.4l-1-0.7
				c0.1,0,0.2,0.1,0.3,0.1c1.8,0.5,3.5,0.9,5.1,1.2C379.9,326.5,384.6,325.9,387.2,325.2z"/>
			<path class="st9" d="M390.2,323.9c-0.1,0.1-1,0.7-2.9,1.2C388.2,324.8,389.2,324.4,390.2,323.9z"/>
			<path class="st9" d="M346.6,350.6c-2.4-2.6-6.1-6.6-7.6-8.2c-0.2-0.2-0.3-0.3-0.6-0.6v0c-0.3-0.2-0.6-0.5-1-0.8
				c-0.5-0.4-1.1-0.9-1.8-1.3c0,0,0,0-0.1-0.1c-0.6-0.4-1.2-0.9-1.8-1.3c-3.7-2.6-8-5.4-9.2-6.1c-0.2-0.1-0.3-0.2-0.3-0.2l0.2-0.5v0
				l0.4-1l0-0.1l0.8-2c0,0-0.5,0.2-1.4,0.4c-0.1,0-0.1,0-0.2,0c-3.3,0.7-11.5,1.9-21.3-1.5c1.2,0.3,10.9,2.7,21.2,0.3l0,0
				c1.1-0.3,2.2-0.6,3.3-1l-0.9,5.2l13.7,9.8C340.2,341.6,344,347.3,346.6,350.6z"/>
			<path class="st9" d="M348.8,353c-0.2-0.1-0.6-0.5-1.1-1c-0.3-0.4-0.7-0.8-1-1.3c0.4,0.5,0.8,0.9,1.2,1.3
				C348.5,352.6,348.8,353,348.8,353z"/>
			<polygon class="st9" points="304.3,325.2 313.5,312.2 304.3,313 311.2,313.5 			"/>
		</g>
	</g>
	<ellipse class="st3" cx="345.2" cy="221.6" rx="40.4" ry="22.1"/>
</g>
<path class="st7" d="M365.2,574.9v0.7c-2.7,0.7-5.4,1.3-8.2,2c-0.8,0.2-1.5,0.4-2.3,0.5c-8.9,2.2-17.8,4.5-23.8,12.4
	c-5.8,7.6-12.7,13.8-20.8,18.7c-4.2,2.6-8.5,4.4-13.5,4.6c-0.1,0-0.2,0-0.4,0c-1.3,0-2.5,0.2-3.7,0.5l1.4-41.9l3.2-1.4l4.3-1.8
	L365.2,574.9z"/>
<path class="st17" d="M296.7,613.8c-0.1,0-0.2,0-0.4,0c-1.3,0-2.5,0.2-3.7,0.5c-4.6,0.9-9,3.1-13.7,4c-6,1.2-10.2-1.7-10.8-7.6
	c-1.4-15.1-15-32-35.2-27.7c-3.2,0.7-6.3,0.5-8.8-0.7c-3.8-1.8-7.7-3.4-11.7-4.9c-1.4-0.5-2.8-1-4.2-1.5l89-5.1c0,0,0,0,0,0.1
	c0.1,0.3,0.5,1.4,2.2,6.5C301.2,582.4,298.2,603.5,296.7,613.8z"/>
<g>
	<circle class="st3" cx="236.2" cy="257.7" r="41.6"/>
	<circle class="st15" cx="236.2" cy="307.2" r="40.6"/>
	<circle class="st3" cx="236.2" cy="310" r="40.6"/>
	<linearGradient id="SVGID_6_" gradientUnits="userSpaceOnUse" x1="209.7588" y1="341.6599" x2="262.6854" y2="341.6599">
		<stop  offset="0" style="stop-color:#DD5910"/>
		<stop  offset="1" style="stop-color:#FF9E15"/>
	</linearGradient>
	<path class="st14" d="M262.7,302.9v35.6c0,3.4-2,6.5-4.9,8.2v33.6c0,5.4-4.9,9.8-11,9.8H228c-6.1,0-11-4.4-11-9.8v-32.6
		c-4.2-1.3-7.3-5-7.3-9.3v-35.6c0-5.4,4.9-9.8,11-9.8h31C257.8,293.1,262.7,297.5,262.7,302.9z"/>
	<g>
		<g>
			<path class="st17" d="M307.4,432.4c-0.1,0.8-0.2,1.7-0.4,2.7c-0.1,0.6-0.2,1.2-0.3,1.8c-0.1,0.9-0.3,1.8-0.4,2.8
				c-0.1,0.6-0.2,1.2-0.3,1.9c-0.5,3.1-1.2,6.5-1.9,10.1c-0.2,1.1-0.4,2.1-0.7,3.2c-0.2,1.1-0.4,2.2-0.7,3.3c0,0,0,0,0,0
				c-0.3,1.6-0.7,3.3-1.1,5c-0.3,1.1-0.5,2.3-0.8,3.5c-0.2,1.1-0.5,2.3-0.8,3.4c-1.8,7.8-3.7,15.7-5.5,22.7c-0.1,0.5-0.3,1-0.4,1.5
				c-0.1,0.5-0.3,1-0.4,1.5c-0.2,0.7-0.4,1.5-0.6,2.2c-0.1,0.2-0.1,0.5-0.2,0.7c-0.1,0.5-0.3,0.9-0.4,1.4c0,0,0,0,0,0
				c-0.1,0.5-0.2,0.9-0.4,1.4c0,0,0,0,0,0c-0.1,0.4-0.2,0.9-0.4,1.3c0,0,0,0,0,0c-0.2,0.7-0.4,1.3-0.5,1.9c-0.1,0.2-0.1,0.4-0.2,0.6
				c-0.2,0.8-0.5,1.6-0.7,2.3c0,0,0,0,0,0c-0.2,0.8-0.5,1.5-0.7,2.1c-0.1,0.2-0.1,0.3-0.2,0.5c-0.1,0.2-0.1,0.3-0.2,0.5
				c-1.1,3.4-2.1,5.7-2.8,6.5c0,0-0.6,5.1,0.8,11c1.5,5.9-0.3,21.2-0.3,21.2s4.3,6.8,7.8,15.3c3.5,8.5,4.6,12.4,4.6,12.4h-87
				c-9.2-3.4-18.6-6-28.2-8.1l-0.1,0.1l-0.1-0.2c-4-0.9-8-1.7-12-2.5c-0.5-0.1-1.1-0.2-1.6-0.3c-1.2-0.2-2.4-0.5-3.5-0.7
				c-1.2-0.2-2.4-0.6-3.6-1c-0.8-0.3-1.5-0.5-2.3-0.8c-0.9-0.4-1.8-0.7-2.7-1.1c-3.6-1.6-7.1-2.8-11.2-1.5c-1.8,0.5-3.6,0.2-5.3-0.2
				c2.5-16,10-54.9,10-54.9s-1.8-3.9,1.9-14.3c0.9-2.7,2.8-8.9,5.1-16.6c6.6-22.3,16.5-57.3,16.5-57.3s5.7-17.5,9.6-20.7
				c0.2-0.1,0.3-0.2,0.4-0.3c3.4-1.9,15.1-7.9,18.2-9.5h0c0.1,0,0.1-0.1,0.2-0.1c0,0,0,0,0,0c0.2-0.1,0.3-0.1,0.4-0.2h0
				c0,0,0,0,0.1,0c0,0,0.1,0,0.1,0c0,0,0,0,0,0v0c0,0,2.6-4,6.1-8.2c0.1-0.1,0.2-0.2,0.3-0.3c0-0.1,0.1-0.1,0.1-0.2
				c0.1-0.2,0.3-0.4,0.5-0.5c0.6-0.7,1.3-1.5,1.9-2.2c0.2-0.3,0.5-0.5,0.7-0.8c0.2-0.3,0.5-0.5,0.8-0.8c0.1-0.1,0.2-0.2,0.3-0.3
				c0.1-0.1,0.2-0.2,0.4-0.4c0,0,0,0,0.1-0.1c0.2-0.2,0.5-0.4,0.7-0.7c0.1-0.1,0.2-0.2,0.3-0.3c0.1-0.1,0.2-0.2,0.3-0.2
				c0.1,0,0.1-0.1,0.2-0.1c0.1,0,0.1-0.1,0.2-0.2l0.2-0.1c0.1-0.1,0.2-0.2,0.3-0.3v0h0c0,0,0,0,0,0.1c0,0,0,0.1-0.1,0.2
				c0,0,0,0,0,0.1c0,0,0,0.1,0,0.1c0,0,0,0.1,0,0.1c0,0.1,0,0.1,0,0.2c0,0.1,0,0.2-0.1,0.4c0,0.1-0.1,0.2-0.1,0.3c0,0,0,0,0,0
				c0,0.1,0,0.2-0.1,0.3c0,0.1-0.1,0.2-0.1,0.4c0,0.1,0,0.2,0,0.3c0,0,0,0.1,0,0.1c0,0.1,0,0.3-0.1,0.4c0,0.1,0,0.2,0,0.3
				c0,0.1,0,0.3-0.1,0.4c-0.1,0.4-0.1,0.8-0.1,1.2c0,0.3-0.1,0.5-0.1,0.8c-0.1,0.9-0.1,1.9-0.1,2.8c0,0.1,0,0.3,0,0.4
				c0,0,0,0.1,0,0.1c0,0.1,0,0.3,0,0.4c0,0.2,0,0.3,0,0.5v0c0,0.3,0.1,0.6,0.1,0.9c0,0.1,0,0.1,0,0.2c0,0.1,0,0.3,0.1,0.4
				c0,0,0,0.1,0,0.1c0,0.2,0.1,0.5,0.2,0.7c0.1,0.3,0.2,0.7,0.4,1c0,0,0,0.1,0,0.1c0,0.1,0.1,0.2,0.1,0.3c0.1,0.1,0.1,0.2,0.2,0.4
				c0,0.1,0.1,0.2,0.2,0.3c0,0,0.1,0.1,0.1,0.1c0,0,0.1,0.1,0.1,0.1c0.1,0.1,0.2,0.3,0.3,0.4c0.1,0.1,0.2,0.2,0.3,0.3
				c0,0,0,0,0.1,0.1c0.1,0.1,0.2,0.1,0.2,0.2c0.1,0,0.1,0.1,0.2,0.1c0.1,0.1,0.2,0.1,0.3,0.2l0.3-0.2l8.2-6.8l11.9-9.9l17.2-10.7
				c0,0,0.1,0,0.3-0.1h0c0.1,0,0.1,0,0.2,0c1-0.1,3-0.2,3.3,1.6c0.4,2.4,2.1,7.6,2.1,7.6s-0.1,1.5,0.4,2.9c0.2,0.5,0.5,0.9,0.8,1.4
				c1.5,1.8,5.5,6.3,8.3,7.5c2.8,1.1,5.9,1.4,8.7,4c2.6,2.5,8,2.7,12.8,7.7c0.2,0.2,0.3,0.3,0.5,0.5c0.2,0.2,0.3,0.4,0.5,0.5
				c0.3,0.3,0.6,0.7,0.8,1c0.3,0.4,0.6,0.8,0.9,1.2c0,0,0,0,0,0c1.3,1.7,2.7,3.8,4.1,6.2c0.2,0.3,0.3,0.6,0.5,0.9
				c2.5,4.7,4.8,10.6,5.7,17.6C307.8,423.9,307.9,428,307.4,432.4z"/>
			<path class="st18" d="M223,397.7l-0.3,1.4c0,0-5.8,8.5-6.8,9.1s-4.4,1.4-4.4,1.4v-4.2l7-7.7l4-1.5L223,397.7z"/>
			<path class="st13" d="M256.9,363.5c-2.8,1.9-17.1,12-21.6,18.5c-4.1,6.1-11.3,15.1-12.4,16.5c-0.1,0.1-0.2,0.2-0.2,0.2l-1.3-1.5
				l-1.1,0.9l-2.6,2l1,2.4l-1.9,2.7c0,0-3.7-0.5-4.2,1.1c-0.5,1.6,0,5,0,5s-8-0.4-10-0.1h0c-0.2,0-0.4,0.1-0.4,0.1
				c-0.5,0.5-3.4-6.3-2.7-13.4l2.3-3.3l-1-3.3l2.6-3.8c0.5-0.2,0.7-0.4,0.7-0.4s7.1-10.8,13.4-15.6c0,0.2-0.4,1.4-0.7,3.2
				c0,0.1,0,0.3-0.1,0.4c-0.4,2.4-0.6,5.6,0.1,8.1c0.4,1.5,1.2,2.9,2.4,3.7c0.1,0,0.2,0.1,0.3,0.2l8.5-7.1c0,0,0,0,0,0l11.8-9.8
				l17.3-10.7c0,0,0.1,0,0.3-0.1C258.1,360.9,258.4,362.5,256.9,363.5z"/>
		</g>
		<path class="st19" d="M220,395.5l-1.6,2.2c0,0-1.4,3.2-1.7,4c-0.3,0.7-2.6,2.7-4.2,2.9c-1.7,0.2-1.7,4.2-1.7,4.4l-8.2,2.3h0
			l-0.4,0.1l-0.7-12.7l3.4-5.3l-1-3.4c0.9-1.7,9.2-10.9,13-15.2c0,0.1,0,0.3-0.1,0.4c-0.4,2.4-0.6,5.6,0.1,8.1
			c0.4,1.5,1.2,2.9,2.4,3.7c0.1,0,0.2,0.1,0.3,0.2C217.8,390,220,395.5,220,395.5z"/>
		<path class="st18" d="M191.1,424.6c0,0-8.9,32.9-9.6,34.7c-0.7,1.8-4.4,11.8-4.4,11.8s13.2-29.3,18.4-36.2
			C200.6,428.1,191.1,424.6,191.1,424.6z"/>
		<g>
			<path class="st20" d="M216.8,407.2l-0.2,0.3l-8.1,11.1l-3.6,4.9l-4.9,6.7l-0.2,0.3l0,0l-13.5,18.5c0,0,0.7-5.1,1.8-11.6
				c0.4-2,0.7-4.1,1.2-6.3c0.2-0.9,0.4-1.9,0.7-2.9c0.6-2.2,1.4-4.6,2.4-7.1c1.6-4.2,3.4-8.6,4.9-11.9l0.2-0.4
				c1.5-3.3,2.2-5.6,2.2-5.6s1.2,7.3,2.6,8c0.3,0.1,0.9,0.1,1.7-0.1C207.8,410.5,216.3,407.4,216.8,407.2
				C216.8,407.2,216.8,407.2,216.8,407.2z"/>
			<path class="st21" d="M216.8,407.2l-0.2,0.3l-8.1,11.1l-4.5-7.3C207.8,410.5,216.3,407.4,216.8,407.2z"/>
			<path class="st21" d="M204.9,423.5l-5.2,7.1c0,0-5.9-5.8-7.4-9.4c1.6-4.2,3.4-8.6,4.9-11.9l0.2-0.4c0,0-0.2,6.8,2,9.3
				C201.5,420.7,204.9,423.5,204.9,423.5z"/>
			<path class="st21" d="M200,430.3l-0.2,0.3c-1.9-0.2-9.3-0.3-11.7,7c0.4-2,0.7-4.1,1.2-6.3c0.2-0.9,0.4-1.9,0.7-2.9h9L200,430.3z"
				/>
		</g>
		<path class="st18" d="M286.5,517.5c0,0-0.6,5.1,0.8,11c1.5,5.9-0.3,21.2-0.3,21.2s4.3,6.8,7.8,15.3c2.1,5.2,3.4,8.6,4,10.5
			l-0.3,1.9l-0.3,1.9l-0.9-1.9l-4.2-9l-8-16.1c0,0,0.6-15.2,1-19.8c0.3-4.6-2.2-13.4-2.2-13.4c6.6-10.5,13.6-42.3,13.6-42.3
			s9.9-45.8,8.6-56.6c-1.4-10.8-8.6-21.7-11.6-25.8c-3-4-12.7-8.5-15.3-10.3c-2.5-1.8-8.9-2.2-8.9-2.7c0-0.6-7.2-7.4-7.6-7.6
			c-0.5-0.2-12.9,12.5-12.9,12.5s-7,17.5-7.5,18.2c-0.5,0.7-1.4,1.4-2.2,2c-0.8,0.6-7.3,0.9-10.9,1.2c-3.6,0.3-0.5,4.2,0.8,8.4
			c1.4,4.2-0.2,4.6-0.2,4.6c-1.1,1.5-20.1,17.5-21.6,17.8c-1.5,0.4-13,14.5-13,14.5s-7.5,26.7-10.5,37.4
			c-3.1,10.6-11.7,19.3-11.7,19.3s0.1-16.6,0-17.1c-0.1-0.5,1.6-10.3,4.4-16.9c2.7-6.6,11.1-16.6,17.5-24.8c6.4-8.3,28.6-28,30.1-29
			c1.4-1,3.8-2.4,4.1-3.2c0.3-0.8-3.7-9.8-4.1-11.1c-0.4-1.2,1.9-1.7,5.5-2.9c3.7-1.2,9-0.7,9.8-0.7c0.8,0.1,7.1-15.7,8.1-18.1
			c1-2.4,13.4-12.8,13.4-12.8l1-5.4c0.2,0.7,0.4,1.1,0.4,1.1s-0.3,2.5,1.3,4.3c1.5,1.8,5.5,6.3,8.3,7.4c2.8,1.1,5.9,1.4,8.7,4
			c2.8,2.6,8.7,2.8,13.8,8.7c5,5.9,14.4,19.6,12.1,39.1C305.1,452,290.8,512.6,286.5,517.5z"/>
		<path class="st18" d="M173,510.5l2.9,0.4l3.8,10.8c0,0,4-1.1,5.1,2.4l0.5,1.9c0,0-3-3-4.1-3.1c-1.1-0.1-1.3,1.1-1.3,1.1l-0.8,2
			c0,0,0.3,4.9,2.6,5.4l2.5-1.6c0,0,1.2-1,1.1,0.9c-0.1,1.8-0.4,3.2-0.4,3.2s-1-0.1-1.2,0.4c-0.2,0.5-0.1,1.4-0.4,1.3
			c-0.3-0.1-0.5-2.4-1.5-2.6s-1.5,0.1-1.8-0.6c-0.3-0.7,0.9,0.3-0.3-0.7c-1.2-1.1-2.4-3.4-2.1-5.3s0.7-3.8,0.7-3.8L173,510.5z"/>
		<path class="st18" d="M182.7,559l-0.2,5.8c0,0,0.8,1.5,1.6,2c0.8,0.5,1-0.2,1-0.4s0.4-2.4,0.4-2.4l1.7,1.6l-1.2,2.5l-1.9,1.4
			l-0.1,0.1l-0.1-0.2l-3-3.4l0.7-9.2l6.4,2.6v2.1L182.7,559z"/>
		<path class="st18" d="M252.7,416.3c0,0-5.3,14.1-5.3,16.7s0.3,17.2,0,17.9s-2,4.1-2.2,5.6c-0.2,1.5,0,26.5,0,26.5
			s-7,13.3-7.3,15.6c-0.3,2.4-1.4,13.3-1.4,13.3s-7.8,3.7-10,5.9s-4.6,4.2-4.6,4.2l-9.3,11.7l-10.7,15.5l-3.7,6.6
			c0,0-7.8,8.3-11,9.6c0,0,5-3.3,10.4-11.6c5.4-8.3,16-23.8,16-23.8s8-10.7,9.7-11.7c0,0,6.8-5.5,10.9-7.9c0,0,1-14.2,3.2-17.6
			c2.2-3.4,5.6-9.2,5.4-12.9c-0.2-3.7-0.5-23.1,0.7-26.3c1.2-3.2,2.9-8,2.9-12.7c0-4.8-2.5-6.3,1.9-15.5S252.7,416.3,252.7,416.3z"
			/>
		<g>
			<path class="st18" d="M240.8,435.8l1.2,8.9l0,0.3l-0.3,0c-2.7,0.3-5.4,0.6-8.2,0.9c-1.4,0.1-2.7,0.3-4.1,0.3
				c-1.4,0.1-2.7,0.2-4.1,0.1c1.4,0,2.7-0.2,4.1-0.3c1.4-0.2,2.7-0.3,4.1-0.5c2.7-0.4,5.4-0.8,8.1-1.2l-0.3,0.4l-1.5-8.9
				L240.8,435.8z"/>
		</g>
		<g>
			<path class="st18" d="M239.6,433c-3.7,0.9-7.4,1.4-11.2,1.9c-3.7,0.5-7.5,0.9-11.3,0.9c3.7-0.9,7.4-1.4,11.2-1.9
				C232.1,433.5,235.8,433.1,239.6,433z"/>
		</g>
		<path class="st18" d="M267.2,549c-1.8,2.2-19,23.6-23.2,28.4h-4.5C239.4,577.4,264.1,552.7,267.2,549z"/>
		<path class="st18" d="M277,573l-1.5,2.3c0,0-10.6-1.2-15.5-1.2c-1.2,0-3.1,0-3.1,0l-1.7-1.8C255.1,572.4,275.7,573.3,277,573z"/>
		<path class="st18" d="M171.5,545.4c0,0.8,0,0-0.9,0.7c-0.9,0.7-0.6,12-0.6,12c-2.5,3.4-4.9,5.5-6.8,6.8c-0.8-0.3-1.5-0.5-2.3-0.8
			c3.7-2.6,6.3-6,6.7-6.6c0.5-0.8-0.2-1.4-0.2-1.4l-6.1,4.3c0.2-0.3,3.9-4.9,6.1-7.3c2.3-2.5,1-10.3,1-10.3
			c1.7-2.8,1.2-15.3,1.2-15.3c0.3-0.7,1.7-8.9,1.7-8.9C171.9,520.5,171.5,544.6,171.5,545.4z"/>
		<path class="st18" d="M171.9,566.8c-0.5-0.1-1.1-0.2-1.6-0.3l-0.2-3.2l1.5,0.6L171.9,566.8z"/>
		<path class="st18" d="M169,450.7c-0.2,10.1,2.5,60.5,2.6,63.5l-5.4-57l-7.2,25.1l-0.4-6.9c6.6-22.3,16.5-57.3,16.5-57.3
			s5.7-17.5,9.6-20.7c-1.8,3.6-4.1,8.3-4.5,9.8C179.6,409.8,169.2,440.2,169,450.7z"/>
		<g>
			<path class="st22" d="M201.8,394.7c0,0,3.6-3.7,4.8-3.2c0,0,1.2-2.2-0.8-2.1S201.7,393.5,201.8,394.7z"/>
			<path class="st22" d="M216.9,383.4c-1.6,1.1-3.3,2.1-3.9,2.1c-1.3,0-0.4-1.8,0-5.3c0.2-2.1,2.2-3.9,3.8-4.9
				C216.5,377.7,216.2,380.8,216.9,383.4z"/>
			<path class="st22" d="M228.2,380.2c-2.9,3.3-6.6,7.3-7.5,8.2c-1.6,1.4-9.4,6.1-9.8,6.4c0.1-0.2,2.3-4.2,2.8-5.7
				c0.5-1.5,2.1-0.8,3.5-0.1c0.7,0.4,1.5-0.7,2.2-1.9c0.1,0,0.2,0.1,0.3,0.2L228.2,380.2z"/>
			<path class="st22" d="M221.5,397.3l-1.1,0.9l-1.9-0.5c0,0-9.6,8.5-9.7,11.3l-1.7,0.6c0,0,0.2-3.6,1.2-4.8c1-1.2,1.9-8.1,3.3-8.6
				c1.4-0.5,3.5-0.3,4.8-1.4c1.2-1.1,2.8-3.2,2.8-3.2S219.1,395.5,221.5,397.3z"/>
		</g>
		<path class="st23" d="M222.8,398.7l-1.3-1.5c1,0.7,1.4,1.1,1.5,1.3C223.2,398.8,222.8,398.7,222.8,398.7z"/>
		<g>
			<path class="st20" d="M217.2,485.2c0,0,5.1-3.9,7.1-4.9c2-1,6.9-6,4.8-12.6c0,0-3.8-5.1-3.4-6.2c0.4-1.1,1.3-4.9,1.3-4.9
				l-6.2-6.4c0,0-2.3,2-3.7,1.3c-1.4-0.7-2-1.3-2-1.3h-2.8l-1.5,1.4l-3.5-0.4l-4.8,6.3l2.3,5.2c0,0-1.3,4.4-2.3,5.6
				c0,0-0.5,9.7,7.4,13.4C217.9,485.6,217.2,485.2,217.2,485.2z"/>
			<path class="st21" d="M217.1,484.4c0,0,4.9-3.7,6.8-4.6c1.9-1,6.6-5.7,4.6-12c0,0-3.6-4.8-3.2-5.9c0.4-1.1,1.1-5.1,1.1-5.1
				l-5.6-6c0,0-2.3,1.9-3.6,1.2c-1.3-0.7-2.1-1.3-2.1-1.3h-2.6l-1.4,1.4l-3.4-0.3l-4.4,5.9l2.1,5.1c0,0-1.2,4.6-2.2,5.8
				c0,0-0.4,9,7.2,12.6C217.8,484.7,217.1,484.4,217.1,484.4z"/>
		</g>
		<path class="st20" d="M212.7,459c0,0,0.6-1.9,1.7-1.9s1.5,0.9,1.7,1.5c0,0,1.8-0.2,2.1,0.3c0.3,0.5,0.7,1.3-1,1.3c0,0,1,4.6,0,5.1
			c-1,0.5-1.6,0.6-1.6,1.3s2.2,1,2.2,1s0.6,1.5,0.7,2.4c0,0.9,0,3.7,0,3.7s1.5,0,0.8,0s0.1,0.7-0.5,1.1c-0.6,0.4,0-0.4-0.6,0.4
			c-0.6,0.8,0.1,0.9-0.6,0.8s0,0.8-0.7-0.1c-0.7-0.9-0.3-1.1-0.7-0.9c-0.3,0.2,0.3-0.5-0.3,0.2c-0.6,0.7,0.3,1.4-0.7,1.2
			c-0.9-0.2-0.1,0.3-0.9-0.2c-0.8-0.5-1.8-0.7-1.5-1.3c0.3-0.6,0-2.1,0-2.1s-0.5-0.4-0.5-0.8s-0.6,0.1,0-0.4
			c0.6-0.5,0.3-0.1,0.6-0.5c0.3-0.4,0.3-2.4,0.3-2.7s-0.8-0.4,0-1c0.8-0.5,0.8-0.5,0.8-0.5s0.9-0.9,0.3-1.2
			c-0.6-0.3,0.5,0.2-0.6-0.3s-0.7,0.8-1.1-0.4c-0.4-1.2-0.6-3.9-0.6-3.9s-2.7-0.4-1.1-2.1C210.7,459.2,211.8,458.7,212.7,459z"/>
		<path class="st20" d="M205.9,460.2c0,0,3.7-5,7.8-5.1c4.1-0.2,7.6,1.5,9.1,4c0,0,3.7,0.3,1.4-1.9c-2.3-2.3-6-4.2-10.8-3.8
			c-4.8,0.4-8.6,5.1-8.6,5.1S203.6,460.4,205.9,460.2z"/>
		<path class="st20" d="M209.5,474c-0.3,0-1.5,0.8-1.9,0c-0.3-0.8-0.3-1.2-0.7-1.8c-0.4-0.6-0.8-0.4-0.8-1.1s0.1-1,0.5-1
			s-0.3,0.6,0.4,0s-0.2-0.1,0.7-0.6s1.3-1.2,1.4-0.7c0.2,0.5,0.3,0.5,0.3,1.3c0,0.8,0.6,1.6,0.8,1.8s-0.5-0.3,0.2,0.2
			c0.7,0.4,1.3,0.5,1.1,1.4c-0.2,0.9-0.5,1.3,0,2c0.6,0.7,2.5,1.4,2.8,1.6c0.3,0.2,1.6,0.4,1.8,0.4c0.2,0,1,0.3,1.4,0
			c0.4-0.3,2.8-1.8,3-2.5c0.2-0.8-0.8-2.1,0-3c0.8-0.8,0.3,0.6,0.8-0.8s0.4-1.7,0.6-2.1c0.2-0.4,0.4-0.9,0.8-0.6
			c0.4,0.2,0.9,0.6,1.2,0.6c0.3-0.1,0-0.6,0.5-0.6c0.5,0,1-0.6,1.1,0s0.1,1.1-0.3,2s-0.9,0.3-0.7,1.8s-0.9,1.9,0,2.4
			c0.9,0.5,1.1-0.3,0.9,0.5c-0.2,0.8-0.6,1.9-0.9,2.2c-0.3,0.3-1,1.1-2.5,1.5s-1.7,0.8-2.4,0.9c-0.7,0.2-0.5-0.3-1.8,0
			c-1.3,0.3-2.2-0.2-2.8,0c-0.5,0.2,1,1-0.5,0.2c-1.5-0.8-1.1-1.4-1.8-1.4s0,0.1-0.7,0c-0.7-0.1-0.3,0.3-0.9-0.6
			c-0.7-0.9-0.5-2.2-0.7-1.9c-0.8,1-1.3,0.5-1.6,0.5c-0.3,0-0.5,0.4-0.3-0.6C208.5,474.9,209.5,474,209.5,474z"/>
	</g>
	<ellipse transform="matrix(0.456 -0.89 0.89 0.456 -128.565 381.3398)" class="st3" cx="247.7" cy="295.8" rx="15" ry="27.5"/>
	<circle class="st3" cx="218.3" cy="295.4" r="4.4"/>
	<circle class="st3" cx="216.1" cy="302.9" r="3.1"/>
	<circle class="st3" cx="216" cy="308.8" r="3.1"/>
	<circle class="st3" cx="216" cy="314.9" r="3.1"/>
</g>
</svg>
